<?xml version="1.0" standalone="no"?>
<!DOCTYPE svg PUBLIC "-//W3C//DTD SVG 20010904//EN"
 "http://www.w3.org/TR/2001/REC-SVG-20010904/DTD/svg10.dtd">
<svg version="1.0" xmlns="http://www.w3.org/2000/svg"
 width="658.000000pt" height="1294.000000pt" viewBox="0 0 658.000000 1294.000000"
 preserveAspectRatio="xMidYMid meet">

<g transform="translate(0.000000,1294.000000) scale(0.100000,-0.100000)"
fill="#000000" stroke="none">
<path d="M0 12216 c0 -398 3 -732 6 -740 5 -13 9 -14 21 -5 8 7 48 13 91 13
71 1 77 0 75 -19 -2 -11 -4 -30 -5 -42 -2 -17 -13 -24 -48 -33 -64 -16 -75
-24 -73 -51 2 -13 4 -53 5 -89 2 -52 6 -65 20 -68 23 -4 65 44 73 83 3 17 10
39 15 50 4 11 11 28 14 38 3 9 16 21 29 26 12 5 29 16 36 25 7 9 22 16 33 16
15 0 19 5 15 20 -3 11 -1 20 4 20 5 0 9 7 9 16 0 14 3 14 15 4 8 -7 15 -19 15
-27 0 -8 4 -12 9 -9 5 3 11 -1 15 -9 3 -10 19 -15 43 -15 48 0 121 -22 119
-35 0 -6 -30 -9 -70 -8 -59 1 -72 -2 -86 -19 -16 -20 -17 -20 -34 -2 -18 17
-19 17 -42 -11 -20 -26 -27 -28 -43 -18 -15 10 -20 8 -29 -10 -6 -12 -12 -35
-14 -52 -3 -26 2 -33 37 -52 22 -12 46 -22 53 -22 21 -2 25 29 7 49 -17 19
-17 20 1 19 10 -1 33 -4 49 -8 17 -4 43 -3 58 2 21 7 38 5 67 -8 38 -17 39
-17 94 10 31 15 58 31 61 35 9 14 115 22 130 10 11 -9 23 -9 46 -1 21 7 37 7
49 1 10 -6 25 -7 33 -4 8 3 18 1 22 -5 3 -6 16 -11 28 -11 l22 -1 -24 -19
c-13 -11 -35 -20 -50 -20 -15 0 -35 -6 -46 -14 -11 -7 -33 -14 -48 -14 -38 1
-55 -17 -40 -40 6 -9 17 -15 25 -13 7 3 27 5 43 6 17 0 64 17 107 38 88 43 98
44 123 17 10 -11 29 -20 42 -20 29 0 31 -31 4 -57 -11 -10 -23 -31 -27 -48
-11 -48 -24 -59 -46 -38 -15 14 -21 15 -27 4 -7 -10 -12 -10 -30 1 -46 28 -49
-36 -5 -126 13 -28 24 -60 24 -73 0 -17 6 -23 23 -24 21 0 21 -1 2 -8 -11 -5
-26 -6 -32 -4 -19 7 -17 -52 2 -67 12 -10 18 -10 30 0 12 10 18 10 29 1 13
-11 12 -18 -2 -56 -13 -35 -14 -49 -4 -67 20 -40 19 -63 -1 -60 -24 4 -57 -25
-50 -44 3 -8 -1 -14 -11 -14 -9 0 -16 5 -16 11 0 16 -42 48 -63 49 -10 0 -20
-7 -23 -15 -7 -18 -35 -20 -52 -3 -16 16 -15 100 2 123 16 22 46 14 53 -14 5
-19 58 -39 70 -27 3 3 7 24 10 48 6 57 -31 131 -67 136 -14 2 -30 8 -36 13 -6
5 -19 7 -27 3 -13 -5 -14 -10 -5 -30 14 -29 3 -43 -20 -26 -9 7 -24 15 -32 18
-8 3 -23 10 -32 15 -28 14 -31 11 -24 -23 4 -23 1 -43 -11 -65 -20 -38 -35
-41 -63 -13 -19 19 -22 27 -24 75 -1 29 -31 25 -33 -5 0 -14 -1 -31 -2 -38 -1
-10 -10 -12 -30 -7 -22 5 -39 -1 -75 -25 -25 -17 -46 -34 -46 -38 0 -4 10 -25
23 -47 18 -32 29 -41 54 -43 36 -4 50 -17 63 -62 9 -32 9 -32 -21 -26 -27 5
-30 3 -24 -14 4 -13 0 -22 -15 -30 -26 -14 -51 -6 -90 27 -17 13 -31 22 -31
19 -1 -3 -2 -9 -3 -13 -10 -53 -64 -39 -73 18 -6 44 -8 45 -38 25 -19 -12 -25
-13 -25 -4 0 8 -20 24 -45 38 -25 14 -45 29 -45 35 0 16 116 11 136 -6 18 -15
31 -18 97 -24 41 -4 47 -2 47 14 0 10 -12 27 -27 36 -16 10 -36 27 -47 37 -13
14 -26 18 -43 13 -20 -5 -31 2 -59 32 -24 26 -34 32 -34 20 0 -9 -6 -17 -14
-17 -9 0 -15 20 -20 62 -3 34 -13 72 -22 86 -21 32 -12 38 36 25 22 -5 40 -7
40 -2 0 4 7 15 16 23 12 12 28 14 75 9 62 -6 70 0 47 36 -16 26 -3 54 22 46
16 -5 20 -2 20 15 0 12 -4 18 -10 15 -23 -14 -126 -36 -147 -30 -12 3 -25 1
-28 -5 -3 -5 -38 -10 -76 -10 l-70 0 16 -29 c8 -16 20 -31 27 -33 6 -2 8 -9 4
-16 -5 -8 -13 -8 -33 1 -21 9 -27 9 -31 -1 -6 -18 -54 23 -69 60 -18 42 -17
45 18 40 26 -4 30 -2 27 14 -2 13 -13 20 -36 22 l-32 3 0 -109 c0 -95 2 -111
19 -126 11 -10 17 -24 14 -32 -3 -8 2 -17 11 -20 22 -9 10 -24 -20 -24 -22 0
-24 -4 -24 -44 0 -24 7 -62 14 -85 13 -35 13 -42 0 -55 -10 -11 -14 -41 -14
-115 0 -100 0 -101 23 -96 12 3 40 -1 62 -11 61 -25 175 -50 226 -49 25 0 58
8 72 18 37 24 72 22 90 -6 8 -13 33 -29 55 -35 58 -18 95 -50 89 -78 -6 -35
12 -44 103 -53 89 -9 152 1 180 29 10 10 24 20 31 22 20 8 0 38 -44 67 -20 13
-37 32 -37 42 0 12 -5 16 -14 13 -8 -3 -26 2 -40 11 -26 17 -28 16 -30 -20 -1
-23 0 -22 -77 -12 -40 6 -63 15 -79 33 -13 13 -21 26 -19 28 2 3 44 10 93 16
81 11 91 11 102 -5 16 -21 37 -10 29 16 -11 34 72 48 111 18 6 -5 24 -8 40 -7
16 1 37 -2 47 -6 14 -7 17 -3 17 24 l0 33 49 -5 c43 -4 50 -2 55 14 8 33 41
18 41 -18 0 -30 24 -64 44 -64 14 0 14 6 1 30 -17 32 -2 50 41 50 41 0 45 -5
51 -75 3 -26 6 -30 31 -27 16 2 35 -2 42 -8 10 -8 24 -8 55 1 40 12 41 14 35
47 -9 49 5 59 88 62 117 4 131 6 150 14 23 11 48 0 54 -24 6 -23 28 -27 36 -6
5 14 60 30 87 26 8 -1 22 -10 31 -19 10 -11 30 -18 50 -17 33 1 34 3 37 45 2
25 1 55 -3 68 -5 19 -9 22 -25 13 -10 -5 -32 -10 -49 -10 -24 0 -31 4 -31 20
0 11 -4 20 -10 20 -5 0 -10 -6 -10 -14 0 -8 -8 -21 -19 -28 -10 -7 -20 -22
-22 -32 -6 -29 -28 -31 -38 -3 -11 30 -33 46 -39 29 -5 -17 -22 -15 -22 3 0
11 -11 15 -40 15 -34 0 -42 4 -50 24 -5 13 -18 27 -29 31 -10 3 -22 12 -25 21
-3 8 -24 22 -46 32 -40 17 -40 17 -25 46 13 24 13 30 1 40 -7 6 -21 23 -31 38
-16 26 -16 28 0 34 10 4 28 -2 45 -15 16 -11 35 -21 42 -21 8 0 30 -16 51 -36
35 -34 36 -38 21 -55 -14 -16 -14 -19 5 -38 12 -12 21 -28 21 -36 0 -24 24
-17 55 15 32 34 89 49 117 31 15 -9 22 -9 34 4 18 18 26 19 41 4 17 -17 61 15
79 57 l14 34 75 0 75 0 0 45 c0 44 3 48 35 48 64 0 64 -1 67 -50 l3 -48 68 3
c80 4 97 -5 98 -57 1 -20 3 -28 6 -18 5 18 23 24 23 7 0 -13 27 -13 36 1 3 6
1 16 -5 22 -15 15 -14 27 3 27 22 0 29 19 15 36 -9 11 -23 14 -46 11 -36 -6
-47 3 -39 31 6 17 69 52 94 52 6 0 13 8 16 18 3 9 20 23 38 31 l33 15 -33 8
c-41 11 -38 24 13 52 22 11 42 24 45 27 3 3 21 10 40 15 32 9 36 14 41 52 7
56 -4 62 -24 12 -21 -54 -50 -55 -45 -2 4 45 -12 45 -26 0 -6 -18 -19 -34 -28
-36 -15 -3 -18 4 -18 40 0 71 11 79 110 76 80 -3 85 -4 88 -25 4 -25 22 -32
22 -8 0 23 39 38 88 32 31 -3 50 -1 59 9 8 8 34 14 60 14 27 0 53 6 62 15 9 8
34 16 55 18 21 3 42 11 47 18 6 10 9 8 9 -10 0 -13 -8 -30 -18 -37 -13 -10
-14 -15 -5 -25 10 -10 8 -18 -9 -36 -20 -21 -21 -26 -9 -45 12 -19 11 -23 -5
-35 -10 -7 -24 -13 -31 -13 -13 0 -13 -33 0 -46 4 -4 19 5 33 19 15 15 31 27
36 27 6 0 8 7 4 15 -3 9 0 15 9 15 19 0 19 14 0 30 -21 17 -1 50 30 50 19 0
25 5 25 23 0 28 17 47 42 47 17 0 22 -10 19 -37 -1 -8 9 -13 24 -13 18 0 28 7
35 26 11 28 35 28 35 0 0 -22 26 -38 42 -25 6 6 22 9 35 7 18 -2 24 3 29 27 4
20 8 25 12 15 10 -25 12 -49 4 -47 -4 1 -25 -32 -46 -73 -22 -41 -45 -78 -53
-81 -7 -4 -29 -14 -48 -22 -34 -15 -35 -16 -7 -16 32 -1 35 -15 6 -39 -73 -61
-72 -60 -55 -97 16 -34 16 -34 51 -19 19 7 36 10 38 6 8 -13 -12 -51 -33 -62
-14 -7 -20 -20 -18 -38 2 -40 -11 -72 -30 -73 -14 0 -13 -2 3 -8 41 -16 55 -3
55 53 0 29 5 57 12 64 15 15 53 15 78 0 28 -18 37 -2 17 31 -30 52 -21 80 33
96 34 10 60 39 60 67 0 30 26 68 47 68 13 0 15 -8 9 -46 -5 -40 -3 -47 14 -51
21 -6 27 -28 11 -38 -10 -6 -8 -51 2 -62 4 -3 7 -21 7 -40 l0 -33 85 0 c96 0
99 -3 93 -91 -3 -38 -6 -44 -28 -47 -40 -6 -48 -22 -12 -22 25 0 43 10 73 40
22 22 45 40 50 40 4 0 16 -11 25 -25 9 -14 25 -25 35 -25 10 0 21 -4 24 -10
11 -17 35 -11 35 9 0 11 -4 22 -9 25 -4 3 -6 17 -3 31 3 17 0 25 -10 25 -18 0
-71 54 -61 63 3 4 -9 7 -28 7 -41 1 -69 20 -69 48 0 16 8 21 40 24 47 4 70 -6
70 -31 0 -25 11 -33 27 -19 11 9 20 5 41 -15 l27 -25 18 23 17 24 208 -2 207
-2 3 -37 c2 -26 8 -38 19 -38 8 0 32 -14 53 -30 30 -24 45 -29 65 -24 14 3 31
1 39 -6 10 -8 21 -8 33 -2 10 6 36 7 58 3 30 -5 45 -14 60 -38 23 -37 35 -37
53 0 7 15 17 27 23 27 5 0 9 16 7 36 -2 30 3 41 32 65 19 16 41 27 47 24 7 -2
17 5 23 15 15 28 52 27 48 -1 -3 -22 -15 -32 -53 -44 -19 -6 -19 -7 -2 -19 33
-25 20 -54 -43 -99 -33 -23 -60 -50 -60 -59 0 -13 -8 -18 -29 -18 -39 0 -61
-9 -61 -26 0 -8 -4 -14 -10 -14 -5 0 -7 7 -4 15 4 9 0 15 -9 15 -8 0 -20 -13
-26 -30 -12 -37 -41 -40 -41 -5 0 18 -5 25 -20 25 -15 0 -20 7 -20 29 0 33
-16 49 -32 33 -7 -7 -6 -17 2 -32 12 -22 11 -22 -32 -15 -23 4 -46 12 -49 17
-4 7 -17 7 -35 1 -22 -7 -29 -17 -32 -43 -6 -52 6 -104 22 -91 9 7 18 6 33 -4
23 -16 47 -12 78 15 30 26 51 30 72 15 10 -8 24 -15 32 -15 8 0 20 -8 27 -17
12 -17 13 -16 22 8 16 40 41 44 74 12 20 -19 28 -35 25 -50 -6 -33 17 -49 48
-33 22 12 27 11 45 -5 12 -11 33 -18 53 -16 17 1 42 2 54 2 20 1 20 3 8 16 -8
8 -15 21 -15 28 0 23 31 46 59 43 14 -1 31 1 38 5 8 5 18 -5 28 -29 8 -20 15
-41 15 -47 0 -16 14 1 16 20 8 50 15 61 45 67 48 9 79 -30 48 -61 -7 -7 -7
-13 -1 -17 6 -3 34 10 64 29 42 28 61 35 93 33 36 -3 40 -6 40 -30 -1 -14 2
-25 6 -22 4 2 29 6 56 9 26 3 63 9 81 14 18 6 40 7 47 4 17 -6 39 -78 30 -100
-5 -14 -8 -13 -26 3 -18 16 -24 16 -52 5 -18 -7 -50 -16 -72 -20 -23 -3 -40
-11 -39 -18 1 -7 2 -22 3 -33 1 -16 5 -19 19 -12 9 5 49 10 88 11 48 1 87 8
119 22 57 25 106 21 141 -12 30 -29 30 -40 -2 -79 -26 -30 -27 -53 -2 -33 20
15 97 33 158 35 l55 3 -3 35 c-2 30 2 37 25 46 47 20 85 27 144 29 30 1 66 9
80 18 13 8 57 21 98 28 l73 14 -4 94 c-3 76 -7 96 -22 107 -11 7 -23 11 -28 8
-6 -4 1 11 15 32 41 63 47 144 12 144 -23 0 -28 20 -9 34 9 7 14 18 11 23 -4
6 -1 22 6 36 13 25 15 143 3 155 -3 3 -11 -9 -17 -26 -6 -18 -18 -33 -27 -33
-36 -3 -57 -6 -68 -7 -25 -4 -72 -62 -82 -103 -9 -35 -8 -47 3 -59 22 -24 0
-53 -34 -45 -16 3 -34 0 -46 -9 -11 -9 -31 -16 -45 -16 -29 -2 -114 -60 -118
-82 -4 -21 84 -44 104 -27 9 8 14 8 14 1 0 -6 -8 -16 -17 -21 -16 -9 -16 -10
-2 -11 10 0 19 -11 21 -25 4 -21 1 -26 -21 -32 -14 -3 -30 -11 -34 -17 -5 -6
-6 3 -3 22 4 24 2 32 -9 32 -8 0 -18 -6 -22 -13 -12 -19 -69 -57 -85 -57 -8 0
-24 14 -36 30 -13 17 -29 30 -37 30 -24 0 -17 29 15 61 21 21 36 29 49 24 16
-5 24 2 39 32 24 46 45 65 92 83 45 17 80 48 73 66 -6 17 -62 28 -100 20 -19
-4 -33 -17 -42 -37 -17 -39 -36 -46 -61 -24 -14 13 -29 16 -55 12 -38 -6 -40
-2 -25 38 8 22 7 27 -15 37 -14 6 -25 15 -25 20 0 5 -4 6 -10 3 -6 -4 -4 -17
5 -35 21 -42 19 -55 -16 -85 -29 -24 -33 -25 -49 -10 -25 22 -32 58 -20 91 6
15 8 29 5 33 -4 3 -29 -6 -57 -21 -56 -30 -71 -29 -63 5 3 12 1 29 -4 37 -8
12 -13 12 -30 -4 -20 -18 -51 -16 -51 4 0 5 -9 10 -21 10 -15 0 -19 -4 -15
-16 14 -37 17 -62 8 -68 -6 -3 -16 10 -22 29 -12 36 -27 44 -48 23 -7 -7 -12
-8 -12 -2 0 5 9 17 20 27 11 9 20 25 20 36 0 10 11 35 25 55 15 22 25 51 25
71 0 24 6 39 20 47 31 20 26 42 -7 34 -16 -4 -41 -8 -58 -9 -16 -2 -39 -8 -50
-14 -26 -13 -45 -6 -45 16 0 10 -8 29 -18 42 -26 33 -32 64 -21 104 13 47 53
77 94 69 21 -4 35 -1 43 9 10 11 23 12 68 4 42 -7 62 -6 80 4 21 11 27 10 48
-10 13 -12 33 -23 44 -24 15 -1 18 -5 11 -13 -6 -7 -6 -21 0 -37 5 -14 7 -27
5 -30 -12 -12 37 -17 57 -7 16 9 19 18 15 38 -4 17 -3 22 2 14 5 -7 13 -12 18
-11 23 4 43 -3 64 -21 26 -22 56 -26 62 -8 2 6 20 12 39 13 19 2 46 6 60 10
32 8 69 -25 69 -62 0 -30 11 -29 40 2 12 13 27 22 32 19 5 -3 15 0 23 6 11 9
30 8 82 -4 37 -8 70 -13 72 -10 3 3 6 21 6 42 1 20 5 65 9 100 8 60 7 63 -11
60 -11 -2 -28 3 -37 11 -14 12 -22 12 -37 3 -16 -11 -19 -9 -19 8 0 12 7 20
16 20 9 0 23 8 31 18 13 16 13 15 7 -7 -6 -23 -5 -24 39 -19 33 4 44 2 41 -7
-3 -6 2 -18 11 -25 13 -11 15 -9 16 11 1 13 4 40 6 59 7 54 13 1390 7 1433
l-6 37 -120 0 c-93 0 -123 -3 -134 -15 -20 -19 -83 -19 -154 0 -48 13 -453 15
-3107 15 l-3053 0 0 -724z m240 589 c0 -8 -4 -15 -10 -15 -5 0 -10 7 -10 15 0
8 5 15 10 15 6 0 10 -7 10 -15z m100 -5 c0 -11 -4 -20 -10 -20 -5 0 -10 9 -10
20 0 11 5 20 10 20 6 0 10 -9 10 -20z m1870 -9 c0 -17 -18 -21 -24 -6 -3 9 0
15 9 15 8 0 15 -4 15 -9z m-405 -10 c3 -5 1 -12 -5 -16 -5 -3 -10 1 -10 9 0
18 6 21 15 7z m482 -13 c-3 -8 -6 -5 -6 6 -1 11 2 17 5 13 3 -3 4 -12 1 -19z
m80 0 c-3 -8 -6 -5 -6 6 -1 11 2 17 5 13 3 -3 4 -12 1 -19z m653 6 c0 -8 -4
-12 -10 -9 -5 3 -10 10 -10 16 0 5 5 9 10 9 6 0 10 -7 10 -16z m-2123 -26 c-3
-7 -5 -2 -5 12 0 14 2 19 5 13 2 -7 2 -19 0 -25z m1142 0 c0 -27 -2 -29 -8
-13 -5 11 -6 26 -4 33 8 21 13 13 12 -20z m2236 22 c3 -5 1 -10 -4 -10 -6 0
-11 5 -11 10 0 6 2 10 4 10 3 0 8 -4 11 -10z m-2863 -31 c-2 -17 -8 -27 -13
-22 -9 9 -1 53 10 53 4 0 6 -14 3 -31z m178 16 c10 -12 10 -15 -4 -15 -9 0
-16 7 -16 15 0 8 2 15 4 15 2 0 9 -7 16 -15z m2410 5 c0 -5 -4 -10 -10 -10 -5
0 -10 5 -10 10 0 6 5 10 10 10 6 0 10 -4 10 -10z m620 -23 c0 -20 -1 -20 -16
-5 -9 9 -13 21 -9 27 10 16 25 3 25 -22z m300 23 c0 -13 -11 -13 -30 0 -12 8
-11 10 8 10 12 0 22 -4 22 -10z m790 0 c0 -5 -5 -10 -11 -10 -5 0 -7 5 -4 10
3 6 8 10 11 10 2 0 4 -4 4 -10z m-4480 -22 c0 -19 -2 -20 -10 -8 -13 19 -13
30 0 30 6 0 10 -10 10 -22z m2360 7 c0 -8 -4 -15 -10 -15 -5 0 -10 7 -10 15 0
8 5 15 10 15 6 0 10 -7 10 -15z m737 -7 c-3 -8 -6 -5 -6 6 -1 11 2 17 5 13 3
-3 4 -12 1 -19z m1440 -10 c-3 -7 -5 -2 -5 12 0 14 2 19 5 13 2 -7 2 -19 0
-25z m-1604 7 c-3 -9 -8 -14 -10 -11 -3 3 -2 9 2 15 9 16 15 13 8 -4z m296
-32 l-1 -48 -8 40 c-7 37 -5 55 6 55 2 0 3 -21 3 -47z m1137 13 c-9 -14 -26
-30 -38 -37 -21 -10 -20 -9 3 13 14 12 29 32 32 42 4 10 10 16 14 13 3 -4 -2
-18 -11 -31z m-4479 2 c-3 -8 -6 -5 -6 6 -1 11 2 17 5 13 3 -3 4 -12 1 -19z
m652 -28 c0 -10 -3 -8 -9 5 -12 27 -12 43 0 25 5 -8 9 -22 9 -30z m1231 36 c0
-3 -4 -8 -10 -11 -5 -3 -10 -1 -10 4 0 6 5 11 10 11 6 0 10 -2 10 -4z m-2710
-10 c0 -3 -4 -8 -10 -11 -5 -3 -10 -1 -10 4 0 6 5 11 10 11 6 0 10 -2 10 -4z
m4963 -16 c-3 -11 -7 -20 -9 -20 -2 0 -4 9 -4 20 0 11 4 20 9 20 5 0 7 -9 4
-20z m161 5 c-4 -8 -8 -15 -10 -15 -2 0 -4 7 -4 15 0 8 4 15 10 15 5 0 7 -7 4
-15z m-1104 1 c0 -3 -4 -8 -10 -11 -5 -3 -10 -1 -10 4 0 6 5 11 10 11 6 0 10
-2 10 -4z m-1970 -16 c0 -5 -7 -10 -15 -10 -8 0 -15 5 -15 10 0 6 7 10 15 10
8 0 15 -4 15 -10z m1057 -12 c-3 -8 -6 -5 -6 6 -1 11 2 17 5 13 3 -3 4 -12 1
-19z m553 18 c0 -3 -4 -8 -10 -11 -5 -3 -10 -1 -10 4 0 6 5 11 10 11 6 0 10
-2 10 -4z m807 -33 c-3 -10 -5 -4 -5 12 0 17 2 24 5 18 2 -7 2 -21 0 -30z
m1493 17 c0 -5 -7 -7 -15 -4 -8 4 -15 8 -15 10 0 2 7 4 15 4 8 0 15 -4 15 -10z
m-1335 -10 c-3 -5 -10 -10 -16 -10 -5 0 -9 5 -9 10 0 6 7 10 16 10 8 0 12 -4
9 -10z m1632 -116 c-3 -3 -12 -4 -19 -1 -8 3 -5 6 6 6 11 1 17 -2 13 -5z
m-5943 -50 c12 -5 16 -21 16 -69 0 -55 3 -65 20 -70 17 -5 20 -15 20 -60 0
-62 -7 -85 -26 -85 -9 0 -14 -19 -16 -67 l-3 -68 -129 0 c-95 0 -130 -3 -133
-12 -4 -10 28 -13 136 -13 106 0 141 -3 142 -12 1 -7 1 -78 1 -158 l-1 -145
-45 -3 c-30 -2 -54 2 -68 12 -31 22 -170 22 -188 1 -9 -11 -27 -15 -59 -13
l-46 3 -3 63 c-2 34 -6 62 -9 62 -4 0 -14 -7 -24 -16 -17 -15 -19 -14 -33 21
-9 20 -21 54 -28 76 -11 39 -11 40 30 75 45 38 54 64 23 64 -16 0 -21 9 -27
45 -10 67 -3 75 61 75 30 0 55 5 55 10 0 6 -24 10 -54 10 -82 0 -86 3 -86 71
l0 59 85 0 c101 0 115 18 18 22 l-68 3 -3 49 c-5 80 -18 76 217 76 115 0 216
-3 225 -6z m874 -53 c14 -51 14 -55 -3 -68 -29 -20 -38 -12 -54 51 -12 50 -12
59 0 67 27 17 42 4 57 -50z m-307 39 c12 -7 19 -21 19 -40 0 -28 2 -30 39 -30
66 0 71 -5 71 -75 l0 -63 79 5 79 6 4 -69 c5 -83 -4 -97 -51 -91 -20 2 -61 -2
-91 -9 -30 -7 -58 -10 -61 -6 -12 14 -30 104 -24 123 5 16 1 19 -29 19 -40 0
-36 14 -62 -185 -17 -129 -50 -304 -59 -313 -10 -10 -105 41 -105 57 0 9 5 32
10 51 19 63 72 381 65 388 -3 3 -17 5 -32 6 l-28 1 0 75 0 75 38 3 c31 3 37 7
37 27 0 43 10 55 47 55 19 0 43 -5 54 -10z m225 -47 c16 -54 16 -57 -2 -70
-28 -21 -38 -11 -53 51 -12 50 -12 59 0 67 28 17 39 8 55 -48z m2382 20 c3
-22 8 -23 97 -23 110 0 107 4 104 -116 -3 -99 -5 -104 -40 -104 -16 0 -29 -4
-29 -10 0 -5 18 -10 40 -10 l40 0 0 -70 0 -70 -44 0 c-31 0 -46 -5 -50 -16 -3
-9 -6 -80 -6 -159 0 -183 -2 -187 -110 -183 l-75 3 -8 60 c-10 73 -17 81 -45
55 -11 -11 -25 -20 -29 -19 -4 0 -29 43 -55 95 l-46 94 24 29 c13 16 24 32 24
35 0 3 -22 6 -49 6 -35 0 -51 4 -55 16 -10 26 -7 112 5 120 6 3 79 7 162 8
l152 1 3 38 c3 35 5 37 37 37 35 0 55 14 32 23 -20 7 -241 9 -260 1 -12 -4
-17 -18 -17 -45 l0 -39 -50 0 -50 0 0 110 0 110 90 0 c85 0 90 1 106 26 14 21
23 25 58 22 34 -2 42 -7 44 -25z m-1828 -3 c4 -6 2 -43 -3 -83 -7 -58 -4 -409
6 -557 2 -34 1 -34 -47 -43 -33 -5 -53 -4 -60 3 -13 13 -15 554 -3 644 l9 58
46 -6 c25 -3 49 -11 52 -16z m280 -55 l5 -70 40 -5 40 -5 3 -63 c3 -67 -9 -97
-36 -87 -8 3 -23 3 -33 0 -17 -6 -19 -17 -19 -94 0 -97 -20 -189 -51 -233 -25
-35 -116 -98 -142 -98 -19 0 -45 50 -54 104 -4 28 0 33 43 56 69 36 87 72 88
179 l1 86 -70 5 -70 5 0 70 0 70 65 3 c36 2 68 8 72 15 4 7 8 40 8 75 l0 63
53 -3 52 -3 5 -70z m680 45 c6 -27 4 -26 128 -29 l63 -1 -3 -72 -3 -73 -114
-5 c-79 -3 -116 -9 -119 -17 -3 -10 8 -11 40 -7 38 5 48 2 76 -21 l32 -27 56
26 c31 15 58 25 61 22 2 -2 7 -37 10 -78 l6 -75 -54 -19 c-54 -19 -54 -19 -57
-64 -5 -87 -7 -90 -62 -90 -47 0 -50 2 -50 26 0 35 -24 26 -28 -10 -5 -44 10
-51 119 -51 l101 0 2 -68 c1 -46 -3 -72 -11 -79 -21 -17 -205 -4 -250 19 -108
53 -113 213 -9 316 41 41 43 47 18 47 -25 0 -53 -33 -97 -112 -20 -38 -40 -70
-45 -73 -4 -3 -23 18 -41 46 l-33 52 19 31 c38 65 75 144 81 174 6 30 5 31
-32 34 l-39 3 0 75 0 75 57 3 c52 3 58 5 64 28 6 23 10 25 57 22 45 -3 52 -6
57 -28z m1532 4 c4 -3 8 -28 8 -55 l0 -51 34 21 c43 27 105 27 139 1 62 -49
94 -199 77 -364 -19 -186 -98 -269 -276 -292 -60 -7 -62 -4 -71 92 l-6 61 62
6 c137 15 180 68 181 220 0 104 -16 147 -56 147 -34 0 -79 -47 -93 -96 -6 -21
-11 -76 -11 -121 l0 -83 -55 0 -55 0 0 179 c0 161 13 321 27 344 5 9 77 2 95
-9z m818 -34 c5 -35 6 -35 55 -36 l50 -1 3 -66 3 -66 82 2 82 2 3 -72 3 -73
-48 0 c-43 0 -80 -7 -138 -25 -18 -5 -23 1 -38 49 -14 42 -15 61 -7 76 10 18
8 20 -28 20 l-39 0 -12 -92 c-23 -175 -61 -392 -71 -402 -5 -5 -24 -2 -47 9
-62 29 -63 30 -47 85 14 47 64 346 64 383 0 12 -8 17 -29 17 -26 0 -29 4 -32
38 -2 20 -2 55 1 77 5 37 8 40 40 45 25 4 36 11 38 25 7 43 11 46 59 43 46 -3
48 -4 53 -38z m743 -200 c-6 -199 4 -286 30 -278 7 2 21 32 32 66 10 34 24 62
29 62 17 0 76 -63 76 -81 0 -34 -40 -145 -69 -190 -45 -71 -109 -73 -150 -4
-48 82 -56 136 -56 388 0 179 3 240 13 246 7 4 32 3 57 -3 l44 -10 -6 -196z
m324 63 c31 -82 52 -211 55 -332 l3 -103 -50 -13 c-27 -7 -53 -11 -57 -8 -5 2
-8 34 -8 71 -1 112 -27 276 -55 344 -40 95 -40 92 1 128 l38 33 25 -31 c15
-17 36 -57 48 -89z m-5065 -250 c18 -19 28 -42 30 -68 l3 -40 88 -3 87 -3 0
-79 0 -80 -77 0 c-99 0 -142 12 -179 51 -27 28 -29 36 -29 107 1 73 21 142 43
142 5 0 20 -12 34 -27z m4076 -35 c12 -14 22 -40 24 -63 l3 -40 90 -5 90 -5 0
-75 0 -75 -95 0 c-153 1 -196 39 -188 164 8 113 32 145 76 99z m-4348 -478 c0
-11 3 -20 8 -20 4 0 13 9 20 20 7 11 19 20 28 20 9 0 18 -9 21 -20 3 -11 8
-20 12 -20 3 0 12 9 19 20 13 21 37 26 47 10 3 -5 -10 -41 -30 -80 -29 -58
-39 -70 -60 -70 -21 0 -25 5 -25 28 l-1 27 -17 -27 c-9 -16 -24 -28 -33 -28
-9 0 -19 -9 -22 -20 -6 -25 -27 -26 -27 -1 0 16 -5 17 -38 11 -21 -3 -43 -5
-50 -2 -17 5 -15 22 2 22 9 0 12 7 9 20 -4 15 2 22 22 30 37 14 55 34 55 63 0
30 7 37 37 37 16 0 23 -6 23 -20z m519 11 c11 -7 11 -18 1 -62 -22 -98 -23
-99 -80 -99 -45 0 -52 3 -60 25 -5 14 -7 32 -3 41 4 12 1 15 -12 13 -10 -2
-23 -19 -29 -37 -6 -18 -23 -38 -36 -45 -18 -9 -25 -21 -25 -40 1 -19 -4 -26
-15 -24 -15 2 -16 -3 -19 -68 -2 -32 -45 -94 -57 -82 -8 8 -7 82 2 109 3 9 15
20 27 24 20 7 20 8 -8 14 -17 3 -30 12 -30 20 0 8 13 17 30 20 47 10 75 29 75
50 0 25 -9 25 -26 3 -9 -13 -26 -18 -63 -17 -36 0 -51 -3 -51 -13 0 -7 -5 -13
-11 -13 -6 0 -9 -7 -6 -15 7 -17 -9 -30 -18 -15 -4 7 -13 3 -25 -10 -18 -21
-40 -27 -40 -10 0 11 20 32 67 69 20 16 33 36 37 59 8 50 32 72 78 72 34 0 41
-4 53 -32 l14 -33 1 28 c0 15 3 28 8 28 42 8 92 5 92 -4 0 -8 4 -7 12 1 7 7
22 12 33 12 12 0 30 9 40 20 20 22 24 23 44 11z m314 -5 c12 -10 17 -24 15
-43 -2 -15 2 -32 9 -38 6 -6 9 -24 6 -41 -5 -30 -8 -32 -60 -39 -36 -4 -59 -3
-69 5 -18 15 -19 76 -1 87 7 4 19 22 26 40 11 27 23 37 51 42 3 0 13 -6 23
-13z m215 -21 c7 -35 20 -39 33 -12 10 22 19 27 47 27 l34 0 -7 -57 c-4 -31
-12 -67 -18 -80 -13 -30 -43 -26 -40 5 3 28 -1 28 -31 -4 -26 -29 -46 -25 -46
9 -1 20 -2 20 -16 -5 -15 -28 -38 -36 -49 -18 -8 13 14 132 28 148 16 20 61
11 65 -13z m448 4 c3 -6 1 -16 -5 -22 -6 -6 -11 -27 -11 -46 0 -60 -10 -82
-34 -79 -18 3 -20 9 -17 38 1 19 9 47 17 61 7 15 10 30 6 33 -3 4 0 11 8 16
20 13 27 12 36 -1z m274 -20 c0 -15 4 -19 16 -15 43 16 61 -62 24 -102 -16
-17 -32 -22 -72 -22 l-50 0 6 48 c12 85 25 112 52 112 18 0 24 -5 24 -21z
m418 4 c2 -7 -8 -17 -22 -23 -15 -5 -28 -15 -30 -22 -2 -7 -9 -32 -15 -55 -10
-36 -16 -43 -36 -43 -28 0 -31 14 -15 70 9 30 8 37 -9 48 -11 8 -17 20 -14 28
7 19 134 16 141 -3z m320 -9 c2 -15 9 -21 20 -18 9 2 23 0 30 -4 21 -14 5
-100 -20 -113 -30 -16 -43 2 -30 40 9 25 8 31 -4 31 -7 0 -14 -9 -14 -20 0
-20 -33 -60 -49 -60 -12 0 -3 105 11 143 13 34 51 34 56 1z m137 16 c4 -6 2
-17 -4 -24 -6 -7 -8 -16 -5 -19 4 -3 1 -29 -6 -56 -10 -44 -15 -51 -36 -51
-13 0 -24 3 -24 6 0 7 29 123 35 142 5 15 31 16 40 2z m75 -15 c3 -13 14 -20
30 -20 18 0 26 -6 28 -23 5 -36 -17 -89 -39 -95 -25 -7 -35 14 -20 42 14 26
14 31 -4 31 -8 0 -15 -9 -15 -19 0 -27 -36 -69 -48 -56 -10 10 7 130 22 154
11 18 39 9 46 -14z m135 15 c3 -5 3 -15 -1 -21 -3 -6 -8 -31 -10 -55 -4 -55
-19 -85 -39 -78 -18 7 -20 56 -4 105 6 19 12 40 15 47 4 14 30 16 39 2z m71
-21 c-6 -33 -8 -32 42 -12 16 7 15 -17 -3 -40 -11 -15 -11 -24 -2 -44 15 -33
-9 -50 -37 -25 -14 13 -20 14 -23 5 -3 -7 -14 -13 -24 -13 -19 0 -19 5 -13 63
8 75 18 97 46 97 18 0 20 -4 14 -31z m424 5 c0 -8 -11 -19 -24 -24 -18 -6 -26
-19 -31 -50 -7 -43 -30 -74 -49 -67 -12 4 -13 24 -2 78 7 32 5 37 -13 42 -26
7 -27 25 -2 35 34 12 121 2 121 -14z m685 16 c3 -5 3 -16 -2 -22 -4 -7 -8 -20
-9 -28 -2 -54 -18 -100 -36 -106 -30 -9 -32 1 -17 63 7 32 14 63 14 68 2 30
36 47 50 25z m-4775 -20 c0 -11 -4 -20 -9 -20 -11 0 -22 26 -14 34 12 12 23 5
23 -14z m1373 0 c5 -4 4 -17 -2 -29 -8 -14 -8 -21 -1 -21 20 0 10 -29 -18 -48
-18 -13 -37 -18 -55 -15 -36 7 -38 12 -29 64 6 32 14 47 32 56 24 12 56 9 73
-7z m2917 -5 c0 -22 3 -24 18 -16 10 6 24 6 32 1 12 -7 11 -12 -4 -29 -15 -16
-16 -25 -8 -50 9 -24 8 -31 -5 -35 -9 -4 -23 0 -33 9 -14 13 -18 13 -32 -1
-24 -25 -40 -8 -32 34 14 87 24 112 44 112 15 0 20 -7 20 -25z m-2333 -30 c-7
-46 15 -48 28 -2 7 22 16 32 30 32 17 0 19 -6 17 -34 -2 -19 -8 -45 -13 -58
-8 -22 -14 -24 -61 -21 -45 3 -53 6 -56 24 -5 33 24 94 44 94 13 0 16 -7 11
-35z m184 19 c10 -12 10 -17 0 -23 -10 -6 -9 -12 4 -25 16 -16 16 -18 0 -36
-12 -13 -31 -20 -56 -20 -41 0 -57 13 -40 34 6 7 8 21 5 30 -15 40 58 74 87
40z m193 6 c14 -5 26 -17 26 -25 0 -20 -28 -31 -42 -17 -8 8 -15 9 -25 1 -24
-20 -14 -31 21 -25 43 8 53 -6 24 -33 -35 -33 -83 -25 -99 15 -11 30 5 68 35
82 27 14 30 14 60 2z m297 -24 l0 -21 16 23 c16 23 53 31 53 11 0 -6 -16 -40
-36 -75 -29 -52 -42 -66 -66 -71 -25 -5 -29 -9 -23 -30 5 -23 4 -24 -23 -18
-20 4 -33 1 -42 -10 -12 -14 -60 -22 -60 -9 0 12 43 44 75 55 40 15 67 71 58
124 -4 25 -2 40 7 45 20 12 40 1 41 -24z m515 24 c20 0 30 -30 14 -40 -11 -7
-11 -11 -1 -24 11 -13 11 -19 0 -32 -19 -23 -56 -35 -86 -28 -21 6 -24 11 -19
36 l6 29 -34 -35 c-38 -41 -67 -45 -96 -16 -27 27 -25 56 5 85 30 31 78 33 98
4 15 -20 15 -20 41 6 16 16 33 24 42 21 9 -3 22 -6 30 -6z m2058 -66 c-16 -31
-36 -58 -44 -61 -8 -2 -22 -8 -31 -13 -13 -7 -15 -4 -11 16 5 28 -3 31 -24 9
-26 -25 -51 -18 -58 16 -12 60 -7 87 15 94 12 4 26 2 31 -3 7 -7 18 -7 34 0
17 8 27 8 38 -1 12 -10 20 -10 38 3 39 28 44 2 12 -60z m146 46 c8 -15 -3 -86
-16 -99 -2 -2 -29 -5 -61 -7 -44 -3 -62 -9 -75 -25 -15 -17 -18 -18 -18 -5 0
9 3 16 8 16 9 0 52 92 52 112 0 17 55 37 83 30 10 -3 22 -12 27 -22z m-1503
-2 c21 -17 15 -57 -13 -84 -19 -20 -31 -24 -52 -19 -15 4 -33 11 -39 17 -21
17 -15 57 13 84 19 20 31 24 52 19 15 -4 33 -11 39 -17z m357 2 c9 -9 -1 -100
-12 -101 -95 -10 -134 10 -99 49 10 11 17 25 15 32 -7 30 68 45 96 20z m486 1
c10 -16 -7 -93 -23 -103 -29 -19 -39 -9 -32 35 5 39 5 41 -10 23 -8 -11 -15
-27 -15 -37 0 -18 -26 -33 -42 -23 -6 4 -7 21 -3 42 6 32 5 34 -9 23 -9 -8
-16 -22 -16 -32 0 -22 -35 -44 -45 -29 -4 6 -1 33 5 60 11 46 14 49 48 52 71
7 134 1 142 -11z m210 10 c0 -5 -12 -24 -26 -41 -15 -17 -23 -34 -20 -38 9 -8
38 10 46 29 24 52 27 54 71 54 l44 0 0 -52 c-1 -29 -4 -55 -7 -59 -13 -13 -98
-13 -110 0 -10 11 -15 10 -26 -1 -17 -16 -103 -14 -109 3 -2 6 7 22 20 36 21
22 22 26 8 35 -14 9 -14 13 -2 27 15 17 111 24 111 7z m-422 -37 c2 -16 -1
-42 -7 -56 -9 -23 -14 -25 -63 -24 -42 1 -53 5 -56 19 -2 10 3 26 12 36 9 10
13 21 10 24 -17 16 21 38 60 35 38 -3 41 -6 44 -34z m1571 -60 c1 -1 0 -7 -3
-13 -8 -13 -33 -4 -40 15 -5 12 -1 14 17 8 12 -3 24 -8 26 -10z m-646 -11 c-7
-2 -19 -2 -25 0 -7 3 -2 5 12 5 14 0 19 -2 13 -5z m-3941 -29 c-2 -10 -9 -31
-16 -45 -13 -27 -10 -85 5 -94 4 -3 17 3 29 15 40 40 62 21 75 -64 7 -52 18
-51 32 3 11 43 41 53 128 44 33 -3 85 -5 114 -5 39 0 58 -4 66 -15 9 -12 16
-13 31 -5 21 11 104 9 123 -2 6 -4 11 -2 11 4 0 11 118 11 125 -1 6 -8 -25
-122 -37 -136 -16 -20 -87 -17 -95 4 -4 9 -1 19 5 21 8 2 8 8 -1 23 -14 22
-27 25 -27 5 0 -20 -24 -36 -39 -27 -7 5 -11 19 -10 32 5 35 -13 39 -22 5 -8
-30 -24 -46 -47 -46 -10 0 -12 10 -7 40 8 48 -1 53 -13 8 -8 -31 -12 -33 -60
-38 -69 -7 -93 17 -56 54 22 22 14 35 -14 25 -13 -5 -29 -25 -38 -44 -8 -19
-21 -35 -30 -35 -8 0 -23 -14 -32 -30 -9 -17 -27 -33 -40 -36 -18 -5 -20 -9
-11 -20 6 -8 17 -14 23 -14 6 0 17 -10 25 -21 26 -42 -22 -44 -84 -3 -31 20
-34 54 -4 54 18 0 20 4 15 25 -5 20 -3 25 12 25 10 0 29 11 42 25 13 14 20 25
15 25 -4 0 0 9 10 20 10 11 15 23 12 26 -13 13 -38 -7 -52 -40 -14 -32 -18
-35 -57 -34 -24 1 -51 8 -61 16 -15 14 -21 13 -52 -4 -49 -26 -66 -9 -36 41
27 47 28 69 1 62 -15 -4 -22 1 -26 19 -8 32 -15 25 -19 -20 -5 -47 -11 -56
-43 -56 -57 0 -61 79 -6 115 15 10 24 25 24 41 0 24 3 26 28 21 31 -6 62 19
62 49 0 9 6 14 13 11 6 -2 11 -13 9 -23z m1368 -33 c0 -12 -20 -25 -27 -18 -7
7 6 27 18 27 5 0 9 -4 9 -9z m-1765 -10 c7 -12 -12 -24 -25 -16 -11 7 -4 25
10 25 5 0 11 -4 15 -9z m740 -1 c3 -5 1 -10 -4 -10 -6 0 -11 5 -11 10 0 6 2
10 4 10 3 0 8 -4 11 -10z m2910 -31 c0 -8 -10 -15 -22 -17 -25 -4 -33 22 -10
31 18 8 32 2 32 -14z m413 -1 c-6 -18 -28 -21 -28 -4 0 9 7 16 16 16 9 0 14
-5 12 -12z m-2423 -8 c-3 -5 -10 -10 -16 -10 -5 0 -9 5 -9 10 0 6 7 10 16 10
8 0 12 -4 9 -10z m-1465 -28 c0 -15 -24 -32 -44 -32 -18 0 -19 1 -1 20 18 20
45 27 45 12z m2300 -7 c7 -8 10 -26 8 -40 -6 -26 1 -32 18 -15 6 6 18 8 28 4
16 -6 15 -9 -4 -29 -18 -19 -20 -27 -11 -43 15 -29 14 -39 -6 -46 -11 -5 -22
0 -31 11 -11 15 -14 16 -22 3 -13 -21 -101 -23 -116 -3 -9 14 -14 13 -42 -1
-17 -9 -38 -16 -47 -16 -8 0 -15 -7 -15 -15 0 -8 -4 -15 -10 -15 -5 0 -10 7
-10 15 0 8 4 15 9 15 14 0 33 57 26 79 -4 15 1 24 20 37 15 10 31 28 35 40 10
25 29 31 106 33 35 1 56 -4 64 -14z m1120 -5 c0 -5 -5 -10 -11 -10 -5 0 -7 5
-4 10 3 6 8 10 11 10 2 0 4 -4 4 -10z m-991 -80 c-12 -67 -29 -98 -48 -86 -23
15 0 138 29 156 25 16 30 -4 19 -70z m675 65 c-4 -8 -12 -15 -20 -15 -18 0
-17 -20 1 -43 10 -14 11 -26 3 -48 -18 -51 -75 -65 -121 -29 -25 20 -25 20
-30 0 -3 -12 -14 -20 -27 -20 -21 0 -22 3 -16 40 8 48 -10 55 -22 8 -10 -39
-38 -60 -52 -39 -5 9 -5 22 1 32 5 10 9 29 9 43 0 31 2 32 66 41 50 6 52 6 62
-22 6 -17 11 -21 11 -11 1 16 58 54 106 69 31 11 35 10 29 -6z m-284 -8 c0
-36 -24 -128 -36 -138 -16 -13 -48 -4 -39 11 4 6 -1 22 -9 36 -15 22 -15 25
-1 30 9 4 22 22 30 40 9 23 21 34 34 34 12 0 21 -6 21 -13z m711 -3 c11 -14
10 -18 -5 -29 -22 -17 -46 -9 -46 14 0 34 28 42 51 15z m-2475 -22 c17 -11 26
-49 14 -57 -5 -3 -10 -15 -10 -25 0 -24 -42 -37 -79 -24 -35 12 -41 64 -12 93
21 21 66 28 87 13z m1578 -2 c29 -10 35 -46 16 -94 -8 -22 -16 -26 -49 -26
-22 0 -46 3 -55 6 -20 8 -21 38 -1 54 8 7 15 21 15 32 0 15 14 26 47 37 1 1
13 -3 27 -9z m521 -37 c-6 -42 -5 -46 9 -34 9 8 16 21 16 31 0 10 7 23 15 30
16 13 50 6 40 -9 -11 -19 13 -20 30 -1 33 37 105 19 105 -25 0 -14 -4 -25 -9
-25 -5 0 -11 -10 -13 -22 -6 -46 -107 -31 -109 15 0 19 -3 17 -16 -10 -16 -31
-20 -33 -70 -33 -49 0 -53 2 -53 24 0 65 18 98 59 105 2 1 0 -20 -4 -46z
m-611 22 c-1 -5 -11 -14 -22 -20 -12 -5 -28 -27 -37 -47 -9 -22 -22 -38 -31
-38 -14 0 -16 8 -10 52 4 28 10 56 13 60 7 12 88 5 87 -7z m-2435 -66 c17 -6
31 -15 31 -21 0 -22 -42 -100 -58 -106 -11 -5 -18 -20 -19 -47 -4 -63 -9 -68
-38 -49 -23 15 -24 18 -10 34 8 9 15 26 15 37 0 12 5 23 11 25 5 2 12 19 15
38 4 19 10 43 16 53 6 13 6 23 -3 33 -14 17 -3 18 40 3z m-381 -65 c2 -21 -2
-56 -8 -78 -10 -32 -9 -41 3 -53 13 -13 13 -19 0 -44 -19 -37 -49 -36 -45 2 1
16 -7 34 -23 49 -27 26 -33 60 -11 60 10 0 14 10 14 30 -1 32 37 83 56 77 6
-2 12 -21 14 -43z m3811 -3 c8 -14 7 -22 -4 -31 -21 -18 -45 -5 -45 25 0 31
34 35 49 6z m-1559 -11 c0 -13 -7 -20 -20 -20 -23 0 -26 10 -8 28 18 18 28 15
28 -8z m-947 -12 c7 -27 3 -33 -15 -22 -7 5 -21 7 -30 6 -25 -4 -22 11 5 24
32 17 34 16 40 -8z m2247 -1 c0 -21 -38 -47 -73 -49 -23 -2 -32 1 -32 12 0 8
9 16 20 19 11 2 29 10 40 17 24 17 45 18 45 1z m-3671 -34 c7 -25 7 -39 1 -41
-6 -2 -10 -14 -10 -27 0 -29 -14 -39 -29 -21 -8 10 -8 16 3 25 9 7 13 23 10
38 -9 48 -8 63 6 63 5 0 14 -17 19 -37z m1026 7 c-5 -8 -11 -8 -17 -2 -6 6 -7
16 -3 22 5 8 11 8 17 2 6 -6 7 -16 3 -22z m3385 11 c-12 -23 -30 -36 -30 -22
0 21 13 41 26 41 11 0 12 -4 4 -19z m-72 -23 c8 -8 6 -17 -10 -33 l-22 -23
-13 25 c-7 14 -10 29 -7 34 7 13 38 11 52 -3z m-3378 -18 c0 -5 8 -10 19 -10
20 0 45 -23 35 -33 -7 -6 -63 11 -81 26 -7 5 -10 13 -7 18 7 12 34 11 34 -1z
m3020 -37 c0 -18 -29 -28 -42 -15 -8 8 -8 19 1 39 12 27 13 27 27 8 8 -10 14
-25 14 -32z m-440 1 c7 -19 9 -38 6 -41 -3 -4 -6 1 -6 10 0 8 -9 19 -20 22
-20 6 -26 25 -13 38 13 14 22 6 33 -29z m-2653 1 c5 -16 -22 -55 -39 -55 -10
0 -11 54 -1 63 12 12 33 7 40 -8z m1848 -4 c3 -11 -2 -32 -12 -49 -15 -24 -22
-28 -41 -21 -27 10 -27 15 -2 57 22 36 46 42 55 13z m1125 -6 c0 -8 -4 -15
-10 -15 -5 0 -10 7 -10 15 0 8 5 15 10 15 6 0 10 -7 10 -15z m552 0 c0 -5 -5
-11 -11 -13 -6 -2 -11 4 -11 13 0 9 5 15 11 13 6 -2 11 -8 11 -13z m-3832 -25
c29 -23 33 -31 22 -42 -18 -18 -86 19 -90 50 -5 31 25 28 68 -8z m3098 18 c-6
-18 -28 -21 -28 -4 0 9 7 16 16 16 9 0 14 -5 12 -12z m628 -23 c4 -14 4 -28 1
-31 -10 -10 -27 7 -27 26 0 10 -6 21 -12 23 -7 3 -3 6 9 6 16 1 24 -6 29 -24z
m-3571 -5 c0 -22 -29 -18 -33 3 -3 14 1 18 15 15 10 -2 18 -10 18 -18z m3075
0 c0 -11 -7 -20 -15 -20 -15 0 -21 21 -8 33 12 13 23 7 23 -13z m-2512 -12
c-6 -18 -28 -21 -28 -4 0 9 7 16 16 16 9 0 14 -5 12 -12z m1326 -19 c-3 -5
-10 -7 -15 -3 -5 3 -7 10 -3 15 3 5 10 7 15 3 5 -3 7 -10 3 -15z m-3615 -33
c25 -27 18 -38 -16 -25 -14 5 -23 17 -23 29 0 26 11 25 39 -4z m6395 -1 c-6
-14 -35 -35 -48 -35 -16 0 -3 32 17 40 32 13 37 12 31 -5z m-4839 -5 c3 -5 1
-10 -4 -10 -6 0 -11 5 -11 10 0 6 2 10 4 10 3 0 8 -4 11 -10z m3962 -102 c9
-10 26 -18 39 -18 13 0 27 -8 33 -17 5 -10 13 -14 17 -10 4 4 2 13 -4 19 -18
18 -14 55 5 62 22 9 46 -22 39 -48 -3 -11 0 -26 6 -33 7 -9 6 -20 -6 -38 -18
-28 -51 -33 -60 -10 -9 25 -35 17 -70 -21 -35 -38 -62 -39 -53 -2 5 19 -4 26
-56 42 -17 5 -16 9 7 39 30 39 32 59 11 77 -22 18 -20 60 3 60 10 0 23 -5 28
-10 8 -8 15 -6 25 6 12 15 14 12 17 -32 2 -27 10 -57 19 -66z m183 36 c0 -14
-12 -19 -23 -8 -9 9 4 35 14 28 5 -3 9 -12 9 -20z m-5005 -5 c8 -25 1 -34 -20
-26 -19 8 -20 47 -1 47 8 0 18 -9 21 -21z m5225 -19 c0 -5 -7 -10 -15 -10 -8
0 -15 5 -15 10 0 6 7 10 15 10 8 0 15 -4 15 -10z m-5450 -10 c0 -13 -11 -13
-30 0 -12 8 -11 10 8 10 12 0 22 -4 22 -10z m4526 -55 c4 -10 13 -13 26 -9 23
7 48 -12 48 -37 0 -20 24 -26 35 -9 6 10 45 14 45 5 0 -3 -4 -13 -9 -23 -5 -9
-12 -25 -15 -34 -8 -26 -31 -22 -44 7 -9 20 -19 25 -46 25 -19 0 -38 5 -41 10
-3 6 -17 10 -31 10 -28 0 -31 16 -8 48 18 26 32 28 40 7z m224 -1 c0 -8 -4
-12 -10 -9 -5 3 -10 10 -10 16 0 5 5 9 10 9 6 0 10 -7 10 -16z m1080 7 c0 -18
-42 -61 -60 -61 -10 0 -20 -7 -24 -15 -3 -8 -10 -15 -16 -15 -6 0 -8 5 -5 10
3 6 -1 13 -9 16 -9 3 -16 16 -16 28 0 20 8 24 58 33 31 6 60 11 65 12 4 0 7
-3 7 -8z m-5136 -16 c-4 -8 -10 -15 -15 -15 -5 0 -9 7 -9 15 0 8 7 15 15 15 9
0 12 -6 9 -15z m248 -25 c15 -27 16 -32 2 -37 -8 -3 -18 -3 -21 1 -3 3 -11 -2
-18 -11 -17 -22 -85 -10 -85 16 0 24 35 55 55 48 8 -4 15 -2 15 3 0 22 36 8
52 -20z m-804 -25 c15 -32 15 -62 2 -70 -13 -8 -80 41 -80 59 0 40 61 49 78
11z m5214 0 c-4 -25 -52 -66 -72 -62 -19 4 -15 45 7 69 23 26 69 21 65 -7z
m-4569 -7 c32 -19 36 -28 24 -55 -14 -31 -41 -25 -45 10 -2 15 -8 27 -13 27
-5 0 -9 7 -9 15 0 18 13 19 43 3z m15 -135 c-4 -22 -22 -20 -26 1 -2 10 3 16
13 16 10 0 15 -7 13 -17z"/>
<path d="M425 12370 c-4 -6 12 -10 40 -10 28 0 44 4 40 10 -3 6 -21 10 -40 10
-19 0 -37 -4 -40 -10z"/>
<path d="M400 12220 c0 -5 25 -10 55 -10 30 0 55 5 55 10 0 6 -25 10 -55 10
-30 0 -55 -4 -55 -10z"/>
<path d="M335 11930 c-11 -18 -2 -21 94 -26 78 -4 91 -3 91 10 0 13 -13 16
-67 16 -38 0 -78 3 -89 6 -12 3 -25 1 -29 -6z"/>
<path d="M3630 12051 c0 -5 14 -32 31 -59 17 -27 37 -67 44 -88 11 -33 18 -40
44 -42 38 -4 43 13 39 118 l-3 75 -77 3 c-46 2 -78 -1 -78 -7z"/>
<path d="M885 11410 c-3 -5 -1 -10 4 -10 6 0 11 5 11 10 0 6 -2 10 -4 10 -3 0
-8 -4 -11 -10z"/>
<path d="M1190 11440 c0 -19 3 -21 12 -12 9 9 9 15 0 24 -9 9 -12 7 -12 -12z"/>
<path d="M1425 11440 c-4 -6 -3 -16 3 -22 6 -6 12 -6 17 2 4 6 3 16 -3 22 -6
6 -12 6 -17 -2z"/>
<path d="M2740 11414 c0 -17 22 -14 28 4 2 7 -3 12 -12 12 -9 0 -16 -7 -16
-16z"/>
<path d="M3217 11415 c-8 -18 11 -31 25 -17 11 11 3 32 -12 32 -4 0 -10 -7
-13 -15z"/>
<path d="M5525 11420 c-3 -5 -1 -10 4 -10 6 0 11 5 11 10 0 6 -2 10 -4 10 -3
0 -8 -4 -11 -10z"/>
<path d="M4037 11424 c-11 -11 -8 -44 3 -44 15 0 24 30 13 41 -5 5 -12 6 -16
3z"/>
<path d="M4385 11420 c-3 -5 -2 -10 4 -10 5 0 13 5 16 10 3 6 2 10 -4 10 -5 0
-13 -4 -16 -10z"/>
<path d="M4655 11420 c-3 -5 -2 -10 4 -10 5 0 13 5 16 10 3 6 2 10 -4 10 -5 0
-13 -4 -16 -10z"/>
<path d="M2357 11116 c-4 -10 -5 -21 -2 -24 9 -9 17 6 13 25 -3 17 -4 17 -11
-1z"/>
<path d="M4507 11096 c-6 -16 2 -28 14 -20 12 7 11 34 0 34 -5 0 -11 -6 -14
-14z"/>
<path d="M2498 11083 c7 -3 16 -2 19 1 4 3 -2 6 -13 5 -11 0 -14 -3 -6 -6z"/>
<path d="M4780 11070 c0 -13 20 -13 40 0 12 8 9 10 -12 10 -16 0 -28 -4 -28
-10z"/>
<path d="M6273 12933 c9 -2 23 -2 30 0 6 3 -1 5 -18 5 -16 0 -22 -2 -12 -5z"/>
<path d="M6552 11360 c0 -14 2 -19 5 -12 2 6 2 18 0 25 -3 6 -5 1 -5 -13z"/>
<path d="M5670 11240 c0 -12 7 -35 16 -51 15 -30 17 -31 66 -25 61 8 69 12 61
34 -9 27 -34 42 -71 42 -18 0 -42 5 -53 10 -16 9 -19 7 -19 -10z"/>
<path d="M5983 11209 c-32 -12 -30 -39 2 -39 26 0 44 25 29 40 -5 4 -19 4 -31
-1z"/>
<path d="M643 11153 c-22 -8 -14 -32 15 -47 38 -20 53 -39 56 -73 4 -33 19
-34 24 -1 2 12 10 27 17 33 7 5 15 24 18 41 6 31 5 32 -41 37 -26 2 -54 7 -62
10 -8 3 -21 3 -27 0z"/>
<path d="M5795 11123 c4 -21 14 -50 22 -64 24 -40 11 -62 -29 -54 -18 4 -37
11 -42 16 -18 17 -34 9 -39 -18 -6 -34 8 -53 38 -53 27 0 36 -17 23 -43 -14
-28 -1 -37 33 -23 56 24 74 70 72 189 -1 63 -17 86 -62 87 -22 0 -23 -3 -16
-37z"/>
<path d="M2987 11103 c-4 -3 -7 -13 -7 -22 0 -8 -10 -26 -22 -39 -22 -23 -22
-24 -3 -20 13 2 25 17 33 42 12 38 12 52 -1 39z"/>
<path d="M3285 11099 c-4 -6 -5 -13 -2 -16 7 -7 27 6 27 18 0 12 -17 12 -25
-2z"/>
<path d="M126 11091 c-31 -5 -36 -8 -25 -17 15 -13 139 -29 139 -19 0 12 -45
44 -60 43 -8 0 -33 -4 -54 -7z"/>
<path d="M2770 11078 c0 -13 -5 -29 -12 -36 -7 -7 -8 -12 -2 -12 27 0 46 51
24 65 -6 3 -10 -4 -10 -17z"/>
<path d="M3057 11087 c-4 -11 -5 -23 -1 -28 3 -5 -7 -14 -23 -20 -18 -7 -23
-13 -14 -16 20 -8 53 31 49 58 -3 21 -4 22 -11 6z"/>
<path d="M3357 11073 c-17 -32 -55 -51 -76 -39 -5 3 -16 3 -25 0 -13 -5 -14
-9 -4 -21 9 -12 7 -19 -14 -36 -15 -12 -29 -32 -33 -44 -5 -19 -2 -23 15 -23
13 0 24 -8 27 -19 7 -28 43 -14 55 20 5 16 14 29 20 29 5 0 2 7 -7 16 -11 11
-13 20 -5 28 5 7 7 16 3 19 -3 4 0 7 9 7 24 0 60 46 56 72 -3 22 -4 22 -21 -9z"/>
<path d="M2896 11059 c-10 -19 -11 -29 -4 -27 10 4 32 58 23 58 -2 0 -10 -14
-19 -31z"/>
<path d="M6051 11064 l-54 -25 7 -61 c3 -34 7 -63 9 -65 7 -6 194 -6 224 1 34
8 78 -8 68 -25 -11 -17 39 -9 84 14 34 17 45 29 48 49 4 27 2 27 -45 25 -35
-1 -53 3 -66 15 -14 15 -21 16 -38 7 -17 -9 -29 -8 -57 6 -20 10 -51 25 -69
34 -17 8 -35 24 -38 33 -7 22 -7 22 -73 -8z m126 -96 c-3 -8 -6 -5 -6 6 -1 11
2 17 5 13 3 -3 4 -12 1 -19z"/>
<path d="M6324 11069 c-10 -17 23 -46 37 -32 7 7 9 19 6 27 -7 18 -33 21 -43
5z"/>
<path d="M6500 11015 c0 -10 10 -15 28 -15 19 0 29 5 29 15 0 10 -10 15 -29
15 -18 0 -28 -5 -28 -15z"/>
<path d="M837 11003 c-7 -6 -44 -13 -90 -17 -38 -4 -41 -10 -23 -45 23 -44 56
-71 85 -71 23 1 24 2 10 13 -38 29 -27 78 16 70 21 -5 25 -2 25 20 0 26 -12
42 -23 30z"/>
<path d="M6456 10991 c-4 -7 -5 -15 -2 -18 9 -9 19 4 14 18 -4 11 -6 11 -12 0z"/>
<path d="M2870 10961 c0 -5 -3 -16 -6 -25 -4 -10 -1 -16 9 -16 14 0 27 20 27
41 0 5 -7 9 -15 9 -8 0 -15 -4 -15 -9z"/>
<path d="M540 10945 c-7 -8 -20 -15 -29 -15 -14 -1 -14 -2 2 -14 26 -20 55 -9
53 20 -1 28 -8 30 -26 9z"/>
<path d="M2753 10884 c-5 -15 11 -33 30 -34 15 0 20 32 6 41 -20 13 -29 11
-36 -7z"/>
<path d="M3173 10835 c-3 -9 -2 -19 1 -23 8 -8 38 10 44 26 6 18 -38 14 -45
-3z"/>
<path d="M405 10780 c-3 -5 3 -10 15 -10 12 0 18 5 15 10 -3 6 -10 10 -15 10
-5 0 -12 -4 -15 -10z"/>
<path d="M3110 10765 c0 -15 4 -24 10 -20 6 3 10 12 10 20 0 8 -4 17 -10 20
-6 4 -10 -5 -10 -20z"/>
<path d="M3546 10781 c-4 -7 -5 -15 -2 -18 9 -9 19 4 14 18 -4 11 -6 11 -12 0z"/>
<path d="M2690 10715 c0 -9 5 -15 11 -13 6 2 11 8 11 13 0 5 -5 11 -11 13 -6
2 -11 -4 -11 -13z"/>
<path d="M4076 10715 c-3 -8 -1 -15 4 -15 6 0 10 7 10 15 0 8 -2 15 -4 15 -2
0 -6 -7 -10 -15z"/>
<path d="M4400 10660 c0 -5 5 -10 11 -10 5 0 7 5 4 10 -3 6 -8 10 -11 10 -2 0
-4 -4 -4 -10z"/>
<path d="M2520 10616 c0 -8 12 -28 26 -45 14 -17 23 -38 20 -46 -6 -18 -37
-20 -53 -4 -8 8 -19 8 -42 -2 -28 -13 -31 -18 -31 -60 0 -25 -3 -67 -6 -93 -7
-45 -8 -46 -42 -46 -30 0 -33 -2 -21 -16 12 -15 8 -16 -41 -13 l-55 4 -5 -65
-5 -65 -36 -3 c-27 -2 -38 -9 -42 -23 -4 -14 1 -21 21 -25 15 -4 36 -12 47
-19 11 -6 39 -15 63 -19 66 -10 112 -40 92 -60 -6 -6 -10 -14 -10 -18 0 -11
48 -10 55 1 3 6 18 6 38 0 25 -7 34 -6 43 6 6 8 22 15 35 15 29 0 43 9 52 33
3 9 17 17 29 17 30 0 44 10 52 37 7 23 -13 36 -89 59 -41 13 -39 38 3 42 19 2
32 9 32 17 0 14 -35 31 -56 27 -6 -1 -28 5 -48 13 -26 11 -36 21 -34 33 4 23
56 27 118 9 56 -16 70 -8 47 26 -13 20 -12 24 14 48 27 25 29 33 29 98 0 71
-7 84 -30 56 -16 -19 -60 -19 -88 1 -23 16 -30 58 -12 69 22 13 8 25 -30 25
-28 0 -40 -4 -40 -14z m78 -220 c5 -22 -14 -36 -50 -36 -39 0 -58 10 -58 30 0
21 20 29 70 27 25 -2 36 -7 38 -21z m47 -25 c3 -5 1 -12 -5 -16 -5 -3 -10 1
-10 9 0 18 6 21 15 7z m-179 -120 c-10 -16 -36 -13 -43 5 -8 22 18 37 36 20 7
-8 10 -19 7 -25z m-46 -86 c0 -8 -9 -15 -20 -15 -20 0 -26 11 -13 23 12 13 33
7 33 -8z"/>
<path d="M3395 10589 c-10 -29 -4 -30 25 -3 24 24 24 24 3 24 -13 0 -24 -8
-28 -21z"/>
<path d="M3572 10598 c6 -16 90 -16 95 0 3 8 -10 12 -47 12 -35 0 -50 -4 -48
-12z"/>
<path d="M2123 10593 c9 -2 23 -2 30 0 6 3 -1 5 -18 5 -16 0 -22 -2 -12 -5z"/>
<path d="M2283 10593 c9 -2 23 -2 30 0 6 3 -1 5 -18 5 -16 0 -22 -2 -12 -5z"/>
<path d="M2110 10524 c0 -42 1 -44 30 -44 17 0 30 4 30 9 0 26 -24 70 -41 74
-17 5 -19 0 -19 -39z"/>
<path d="M6091 10549 c-11 -19 -11 -21 4 -15 9 3 19 6 21 6 2 0 4 7 4 15 0 21
-13 19 -29 -6z"/>
<path d="M3447 10536 c-7 -19 -47 -22 -47 -3 0 9 -2 9 -8 -1 -5 -7 -16 -10
-26 -6 -11 4 -32 -6 -64 -33 -56 -48 -84 -63 -111 -63 -12 0 -21 -6 -21 -12 0
-26 18 -39 46 -36 21 2 29 -1 28 -12 -1 -12 13 -14 80 -12 45 2 85 8 91 13 17
17 52 10 58 -11 5 -20 26 -19 54 2 14 11 -12 68 -46 99 -11 11 -17 26 -14 38
3 11 1 27 -5 36 -8 16 -10 16 -15 1z m-29 -98 c-2 -18 -11 -24 -36 -26 -48 -5
-85 30 -44 41 9 3 32 5 50 6 29 1 33 -2 30 -21z"/>
<path d="M3831 10524 c-13 -9 -32 -13 -45 -10 -20 5 -26 0 -36 -27 -6 -17 -20
-49 -31 -70 -10 -22 -19 -43 -19 -47 0 -13 111 -72 125 -66 23 8 26 -25 9 -73
-23 -62 -43 -83 -70 -77 -13 4 -26 1 -29 -5 -4 -6 -18 -8 -31 -5 -27 7 -44
-16 -44 -63 l0 -30 78 3 c44 2 82 -1 90 -7 9 -7 20 -6 36 3 18 9 29 9 44 1 26
-14 62 -14 62 -1 0 12 37 14 44 2 2 -4 -2 -22 -11 -40 -12 -24 -26 -34 -61
-44 -30 -9 -46 -19 -48 -31 -1 -11 -10 -27 -19 -37 -11 -12 -13 -20 -5 -25 19
-12 -9 -35 -44 -36 -27 -1 -25 -2 13 -10 25 -5 45 -8 46 -6 1 1 16 28 34 59
37 67 44 72 77 64 19 -5 24 -13 24 -36 0 -17 2 -30 4 -30 2 0 21 16 42 36 35
31 44 35 79 30 37 -4 69 -29 62 -49 -1 -5 -17 -15 -35 -23 -30 -12 -32 -12
-30 4 2 10 -3 17 -12 17 -18 0 -26 -43 -11 -58 8 -8 14 -8 23 1 14 14 54 16
62 3 3 -5 -5 -20 -19 -35 -33 -36 -95 -37 -123 -1 -24 31 -30 31 -34 3 -2 -16
-11 -24 -27 -26 -14 -2 -39 -15 -56 -28 -26 -19 -44 -24 -93 -24 -49 0 -66 -4
-82 -20 -11 -11 -15 -20 -9 -20 7 0 9 -10 5 -25 -7 -28 5 -33 25 -9 7 9 21 13
33 10 23 -6 134 29 157 50 8 8 25 14 36 14 11 0 26 7 33 15 10 12 24 14 60 9
42 -5 50 -3 73 20 15 15 29 42 32 64 13 80 20 95 47 103 15 4 39 17 54 28 15
12 37 21 50 21 13 0 41 9 62 20 22 11 49 23 62 25 12 2 29 10 37 17 12 10 18
9 29 -6 8 -11 20 -16 29 -12 9 3 33 0 54 -8 32 -11 43 -11 65 1 16 8 39 12 55
8 15 -3 40 -1 56 5 21 8 36 8 57 -1 23 -9 35 -8 73 10 25 11 56 21 69 21 38 0
51 24 30 55 -9 14 -23 24 -30 21 -20 -8 -82 13 -102 34 -9 10 -30 23 -45 29
-15 6 -27 17 -27 25 0 11 -10 15 -37 13 -36 -2 -38 0 -38 28 0 25 -4 30 -28
33 -63 7 -118 -46 -86 -84 10 -12 10 -18 -2 -29 -16 -16 -78 -23 -97 -11 -8 5
-20 -2 -33 -18 -17 -22 -28 -26 -73 -26 -45 0 -55 3 -65 23 -10 19 -11 18 -6
-15 5 -30 2 -39 -14 -47 -20 -11 -81 -4 -81 9 0 5 -9 6 -20 3 -37 -10 -70 5
-70 33 0 13 7 27 16 31 12 4 14 14 9 43 -6 33 -4 39 14 45 31 9 25 25 -8 25
-23 0 -30 -5 -33 -22 -2 -19 -10 -24 -42 -26 -25 -2 -45 -11 -56 -24 l-17 -21
-20 20 c-27 27 -67 19 -94 -18 -20 -28 -43 -37 -53 -21 -7 12 21 87 33 85 13
-3 81 74 81 93 0 12 7 14 29 9 23 -5 32 -2 40 14 12 21 9 26 -34 55 -17 12
-17 16 -6 30 8 9 20 15 28 12 8 -4 13 2 13 15 0 17 -4 20 -22 15 -73 -21 -78
-20 -78 9 0 22 -3 26 -17 20 -32 -14 -80 -17 -100 -6 -15 7 -25 6 -42 -5z
m117 -82 c4 -24 -7 -29 -26 -10 -18 18 -15 40 6 36 9 -2 18 -13 20 -26z m-178
-16 c0 -16 -18 -31 -27 -22 -8 8 5 36 17 36 5 0 10 -6 10 -14z m75 4 c3 -5 -3
-10 -14 -10 -12 0 -21 5 -21 10 0 6 6 10 14 10 8 0 18 -4 21 -10z m155 -31 c0
-24 -23 -21 -28 4 -2 10 3 17 12 17 10 0 16 -9 16 -21z m-120 -23 c0 -3 -4 -8
-10 -11 -5 -3 -10 -1 -10 4 0 6 5 11 10 11 6 0 10 -2 10 -4z m298 -158 c-7
-20 -58 -23 -58 -4 0 11 10 16 31 16 20 0 29 -4 27 -12z m-294 -59 c-3 -6 -13
-8 -21 -5 -9 4 -22 1 -29 -5 -16 -13 -18 -1 -5 20 5 7 14 10 21 6 9 -5 10 -1
5 15 l-7 22 21 -21 c12 -12 19 -26 15 -32z m593 -35 c-3 -3 -12 -4 -19 -1 -8
3 -5 6 6 6 11 1 17 -2 13 -5z m-727 -24 c0 -5 -4 -10 -9 -10 -6 0 -13 5 -16
10 -3 6 1 10 9 10 9 0 16 -4 16 -10z"/>
<path d="M4395 10510 c-9 -15 4 -30 26 -30 12 0 19 7 19 20 0 21 -33 29 -45
10z"/>
<path d="M3610 10500 c0 -5 4 -10 9 -10 6 0 13 5 16 10 3 6 -1 10 -9 10 -9 0
-16 -4 -16 -10z"/>
<path d="M2275 10489 c-3 -4 -2 -10 3 -13 13 -8 46 0 49 11 4 12 -45 14 -52 2z"/>
<path d="M4588 10359 c-18 -10 -26 -69 -10 -69 21 0 53 34 50 53 -4 25 -17 30
-40 16z"/>
<path d="M4380 10324 c-6 -14 -10 -30 -10 -36 0 -5 -11 -33 -25 -60 -14 -28
-24 -53 -21 -55 8 -9 55 52 61 78 4 19 14 29 28 31 17 2 23 11 25 36 3 29 1
32 -23 32 -18 0 -28 -7 -35 -26z"/>
<path d="M1950 10325 c0 -8 10 -25 21 -36 18 -18 20 -25 10 -40 -16 -26 -14
-39 7 -58 11 -9 24 -26 31 -38 12 -23 41 -32 41 -13 0 5 13 7 30 3 46 -9 80
32 80 97 0 56 -11 68 -42 46 -45 -32 -101 -17 -128 35 -13 22 -50 26 -50 4z"/>
<path d="M2080 10320 l-25 -8 27 -1 c15 -1 30 4 33 9 7 11 0 11 -35 0z"/>
<path d="M3183 10289 c-4 -14 -12 -19 -25 -16 -21 6 -38 -19 -38 -57 0 -15
-10 -33 -26 -45 -18 -14 -21 -21 -12 -21 9 0 21 7 28 15 16 19 35 19 55 -1 32
-33 15 -48 -56 -50 -43 -1 -76 -8 -92 -19 -15 -9 -34 -14 -46 -10 -32 10 -32
-10 -1 -40 17 -16 30 -34 30 -41 0 -7 8 -17 17 -23 14 -7 12 -9 -12 -10 -17 0
-40 0 -53 -1 -31 0 -72 28 -72 51 0 10 -4 21 -10 24 -5 3 -9 29 -7 58 l2 52
45 1 c64 1 72 3 65 14 -10 16 -170 13 -184 -4 -8 -10 -9 -16 -1 -21 6 -4 2
-13 -12 -25 -20 -16 -21 -20 -9 -42 7 -14 11 -36 9 -49 -2 -19 -10 -25 -35
-27 -25 -2 -33 -8 -33 -23 0 -11 7 -19 16 -19 15 0 16 -8 11 -60 l-7 -60 30 0
c17 0 31 6 31 13 3 28 5 33 23 59 25 37 87 56 121 38 14 -7 25 -19 25 -27 0
-22 20 -14 30 12 6 15 17 25 30 25 16 0 20 -7 20 -30 0 -36 25 -32 34 6 8 29
41 39 80 25 15 -6 50 -11 77 -11 53 0 61 -10 32 -43 -18 -19 -17 -20 39 -15
32 3 61 8 65 11 3 4 0 18 -7 32 -8 16 -10 29 -4 34 12 12 87 36 99 32 5 -1 18
-3 27 -4 10 -1 20 -13 23 -29 6 -25 9 -27 28 -16 l22 11 -22 10 c-28 12 -36
32 -17 47 11 10 17 10 29 0 8 -6 20 -8 27 -4 10 6 11 5 1 -7 -11 -13 -9 -19
10 -36 17 -16 39 -22 95 -25 52 -3 72 0 72 9 0 18 -21 28 -54 24 -19 -2 -42 7
-73 29 -24 18 -50 29 -58 26 -8 -3 -15 -2 -15 2 0 16 32 52 46 52 9 0 14 10
14 30 0 20 8 35 25 46 24 15 24 17 7 42 -9 14 -17 30 -17 36 0 23 -18 17 -59
-16 -36 -30 -115 -78 -130 -78 -2 0 -10 17 -16 38 -19 59 -38 82 -66 82 -14 0
-35 5 -46 11 -14 8 -23 8 -31 0 -6 -6 -22 -11 -36 -11 -23 0 -26 -4 -26 -37 0
-37 -1 -38 -34 -35 -19 1 -37 4 -39 7 -12 11 14 47 44 61 35 17 46 44 18 44
-9 0 -18 -9 -21 -21z m392 -121 c-1 -13 -3 -26 -4 -30 -2 -15 -39 -8 -45 8 -8
20 11 44 34 44 12 0 17 -7 15 -22z m-181 -27 c4 -5 27 -9 52 -9 26 0 51 -5 56
-10 16 -16 1 -42 -22 -42 -12 0 -30 -5 -41 -11 -17 -9 -25 -6 -45 16 -13 14
-24 35 -24 46 0 20 15 26 24 10z m-154 -111 c0 -5 -10 -10 -22 -9 -22 0 -22 1
-3 9 11 5 21 9 23 9 1 1 2 -3 2 -9z"/>
<path d="M4540 10295 c0 -8 5 -15 10 -15 6 0 10 7 10 15 0 8 -4 15 -10 15 -5
0 -10 -7 -10 -15z"/>
<path d="M1851 10281 c-33 -9 -36 -65 -4 -86 19 -13 26 -13 57 0 46 19 49 53
7 78 -16 9 -31 17 -33 16 -1 -1 -14 -4 -27 -8z"/>
<path d="M971 10271 c-12 -8 -13 -14 -3 -35 15 -34 25 -33 39 3 15 40 -2 54
-36 32z"/>
<path d="M1760 10220 c0 -13 18 -22 24 -11 3 5 -1 11 -9 15 -8 3 -15 1 -15 -4z"/>
<path d="M420 10205 c-12 -15 -12 -19 5 -31 21 -16 45 -18 45 -5 0 5 -8 19
-18 31 -17 21 -19 21 -32 5z"/>
<path d="M255 10190 c-4 -6 5 -10 20 -10 15 0 24 4 20 10 -3 6 -12 10 -20 10
-8 0 -17 -4 -20 -10z"/>
<path d="M5823 10133 c11 -10 56 -12 62 -2 4 5 -11 9 -31 9 -21 0 -34 -3 -31
-7z"/>
<path d="M1570 10115 c-17 -20 18 -56 47 -49 29 8 38 35 17 51 -23 17 -49 16
-64 -2z"/>
<path d="M52 10103 c2 -13 -5 -19 -24 -21 l-28 -3 0 -4979 c0 -3974 3 -4979
13 -4983 6 -2 28 0 47 6 19 5 64 6 100 3 119 -11 194 -17 255 -20 33 -2 107
-8 165 -12 132 -11 346 -9 393 4 23 6 39 6 45 0 6 -6 17 -6 30 1 12 6 31 7 48
2 27 -7 74 -4 182 14 29 5 42 4 42 -4 0 -16 87 -14 93 2 5 16 99 15 105 -2 2
-7 12 -2 23 11 l20 23 -6 -72 -6 -73 669 0 c586 0 671 2 676 15 3 8 11 15 17
15 8 0 8 -4 -1 -15 -11 -13 -5 -15 44 -15 69 0 100 20 60 39 -14 6 -33 11 -42
11 -10 0 -13 3 -7 8 6 4 2 15 -11 28 l-21 20 4 -45 c4 -39 2 -44 -9 -30 -7 9
-18 14 -24 12 -8 -3 -9 9 -3 43 5 26 11 49 14 52 7 7 55 -27 55 -38 0 -6 5
-10 10 -10 6 0 10 8 10 18 1 16 1 16 11 -1 12 -21 29 -22 29 -2 0 18 21 20 38
3 10 -10 17 -10 32 0 11 7 73 17 138 22 105 9 118 8 130 -7 6 -9 12 -24 12
-32 0 -9 5 -33 11 -54 l10 -37 367 0 c220 0 373 4 382 10 13 8 12 10 -3 10
-11 0 -20 10 -24 30 -3 17 -10 33 -14 36 -5 3 -9 17 -9 32 0 15 -6 36 -14 47
-7 11 -16 31 -19 45 -3 14 -15 57 -26 95 -20 67 -82 299 -121 450 -21 80 -34
129 -56 202 -21 71 -13 90 42 104 24 6 47 15 50 20 10 18 25 8 38 -24 8 -17
28 -104 46 -192 17 -88 42 -209 55 -270 14 -60 36 -171 50 -245 14 -74 30
-154 35 -177 25 -107 32 -139 37 -155 4 -17 70 -18 1184 -18 l1179 0 0 4986 0
4986 -37 -7 c-21 -4 -51 -13 -68 -20 -16 -7 -88 -32 -160 -56 -71 -23 -144
-48 -162 -56 -17 -7 -42 -13 -56 -13 -14 0 -28 -4 -31 -9 -3 -4 -27 -14 -53
-20 -27 -7 -59 -17 -73 -23 -23 -9 -117 -35 -265 -73 -33 -9 -82 -22 -109 -30
-27 -9 -68 -18 -90 -21 -23 -4 -70 -15 -106 -25 -36 -11 -83 -21 -105 -23 -22
-1 -48 -6 -57 -9 -39 -15 -55 -18 -162 -32 -98 -13 -111 -13 -119 0 -4 9 -13
13 -18 9 -6 -4 -6 -10 1 -19 9 -10 0 -14 -42 -20 -29 -4 -57 -11 -63 -15 -5
-4 -44 -11 -85 -15 -41 -3 -86 -9 -100 -11 -172 -30 -370 -49 -370 -35 0 5
-17 0 -37 -10 -40 -20 -98 -25 -108 -9 -4 7 -13 6 -26 -1 -11 -5 -25 -8 -32
-5 -9 3 -9 5 1 5 18 1 15 21 -4 21 -9 0 -23 -9 -32 -20 -14 -16 -30 -20 -88
-21 -40 -1 -76 1 -81 4 -5 3 -42 -1 -83 -9 -41 -7 -93 -14 -115 -13 -86 2
-211 1 -230 -1 -50 -5 -291 -4 -300 1 -5 3 -35 3 -65 0 -30 -3 -98 -3 -150 2
-52 4 -142 9 -200 11 -128 4 -527 43 -542 52 -6 4 -25 7 -42 6 -17 0 -39 6
-48 15 -14 12 -21 13 -32 4 -11 -10 -21 -9 -43 3 -16 8 -49 14 -73 14 -70 -1
-82 1 -75 12 3 6 23 11 43 11 23 1 29 3 15 6 -13 2 -23 10 -23 18 0 18 -11 21
-69 17 -38 -3 -48 -7 -44 -18 6 -17 -6 -18 -42 -4 -16 6 -25 16 -22 24 4 9 -2
12 -20 8 -13 -3 -27 -11 -30 -18 -8 -21 -27 -17 -38 9 -6 14 -21 23 -39 25
-25 3 -28 1 -23 -17 5 -22 -2 -25 -41 -15 -13 4 -21 12 -18 19 5 15 -12 35
-31 35 -7 0 -13 -7 -13 -15 0 -8 -4 -15 -9 -15 -5 0 -8 8 -7 18 1 12 -7 18
-26 20 -26 3 -33 -5 -29 -30 0 -5 -4 -8 -9 -8 -6 0 -10 6 -10 14 0 9 -8 12
-25 8 -13 -2 -36 -1 -50 2 -21 5 -24 11 -19 31 5 21 3 25 -15 25 -13 0 -19 -5
-15 -14 9 -25 -29 -27 -90 -5 -32 11 -77 21 -100 23 -43 3 -60 8 -111 31 -16
8 -41 14 -55 13 -31 -1 -141 29 -154 43 -6 5 -20 9 -32 9 -35 0 -197 61 -221
83 -13 11 -23 16 -23 10 0 -17 -56 -7 -102 18 -10 5 -28 9 -41 9 -31 0 -47 18
-47 55 -1 50 -48 93 -83 74 -21 -12 -46 -1 -26 12 9 5 5 10 -14 14 -15 4 -27
11 -27 15 0 13 50 50 69 51 25 2 -59 18 -97 18 -26 1 -32 -3 -30 -16z m18
-114 c0 -5 -4 -9 -10 -9 -5 0 -10 7 -10 16 0 8 5 12 10 9 6 -3 10 -10 10 -16z
m60 -9 c0 -13 -7 -20 -20 -20 -23 0 -26 10 -8 28 18 18 28 15 28 -8z m104 -16
c17 -44 -8 -59 -61 -37 -32 13 -32 14 -15 32 21 24 68 27 76 5z m1459 -431
c-7 -2 -19 -2 -25 0 -7 3 -2 5 12 5 14 0 19 -2 13 -5z m122 -31 c-3 -3 -11 0
-18 7 -9 10 -8 11 6 5 10 -3 15 -9 12 -12z m1418 -1834 c3 -46 9 -98 13 -115
9 -43 -10 -44 -25 -2 -13 37 -15 213 -3 205 5 -3 12 -43 15 -88z m188 -200 c0
-2 3 -46 5 -98 3 -64 10 -100 20 -111 8 -9 18 -34 21 -55 3 -22 12 -52 20 -67
8 -16 12 -31 9 -35 -3 -3 -1 -11 5 -18 8 -10 -4 -27 -50 -70 -34 -31 -61 -62
-61 -67 0 -6 6 -3 13 6 10 14 67 47 179 104 28 14 78 9 78 -9 0 -17 34 -53 50
-53 10 0 14 -8 12 -22 -2 -13 4 -26 16 -32 14 -7 20 -22 20 -48 1 -47 25 -116
52 -150 11 -14 20 -33 21 -42 1 -9 4 -5 8 9 4 14 15 26 24 28 14 3 17 -5 17
-55 -1 -32 -7 -71 -15 -88 l-13 -30 -1 33 c-1 17 -4 32 -8 32 -5 -1 -27 -32
-51 -70 -33 -54 -47 -88 -57 -147 -21 -116 -81 -257 -131 -307 -32 -31 -55
-31 -169 -2 -33 8 -89 23 -125 31 -36 9 -70 21 -76 26 -6 5 -14 53 -18 106 -7
106 -24 232 -36 275 -5 16 -3 43 5 70 15 51 35 274 35 402 1 85 3 96 36 156
l35 65 -5 -68 c-4 -66 -4 -67 12 -45 23 31 40 65 53 108 36 121 49 186 44 211
-5 22 -3 29 9 29 9 0 16 -1 17 -2z m-532 -76 c-8 -53 -23 -82 -41 -82 -13 0 0
40 20 63 14 16 14 20 2 27 -12 7 -11 12 5 29 10 12 19 20 21 19 1 -2 -2 -27
-7 -56z m321 39 c0 -30 -11 -51 -25 -51 -21 0 -26 16 -14 44 14 30 39 35 39 7z
m468 -29 c33 -41 42 -65 27 -70 -11 -4 -24 -34 -31 -72 -3 -14 -11 -31 -18
-39 -12 -11 -14 -3 -12 50 0 48 -5 76 -22 111 -27 59 -27 58 2 58 16 0 34 -13
54 -38z m-385 -53 c18 1 27 -4 27 -14 0 -11 -12 -15 -50 -15 -44 0 -50 2 -50
21 0 18 4 20 23 14 12 -4 34 -6 50 -6z m-103 -13 c0 -11 -19 -15 -25 -6 -3 5
1 10 9 10 9 0 16 -2 16 -4z m-95 -422 c22 -53 18 -62 -10 -24 -26 35 -32 60
-15 60 5 0 17 -16 25 -36z m-126 -145 c77 -23 150 -119 151 -197 0 -33 -38
-82 -65 -82 -6 0 -36 -13 -66 -30 -63 -34 -104 -37 -139 -10 -14 11 -31 20
-37 20 -7 0 -13 4 -13 9 0 5 -11 12 -24 15 -13 3 -40 27 -61 52 -30 36 -39 57
-43 95 -4 47 -3 51 35 87 61 58 158 73 262 41z m1077 -26 c-4 -4 -11 -1 -16 7
-16 25 -11 35 7 17 9 -9 13 -20 9 -24z m-26 -189 c0 -32 -27 -144 -44 -185 -8
-19 -37 -67 -65 -108 -28 -40 -70 -104 -92 -143 -22 -38 -43 -68 -45 -66 -2 2
3 29 10 59 21 83 46 178 63 244 18 71 32 138 38 180 4 39 26 106 39 123 7 10
19 3 53 -34 24 -27 43 -58 43 -70z m16 -198 c-4 -18 -23 -57 -44 -87 -21 -30
-52 -79 -70 -110 -35 -62 -72 -102 -72 -78 0 8 19 42 43 74 24 33 46 67 50 75
4 8 11 22 16 30 5 8 24 47 42 85 32 70 47 74 35 11z m-552 -289 c49 -17 57
-34 19 -42 -15 -4 -39 -11 -53 -15 -55 -20 -97 -21 -133 -6 -23 9 -53 13 -79
10 -65 -8 -88 1 -88 36 l0 29 98 3 c140 4 192 1 236 -15z m16 -121 c0 -33 17
-42 41 -20 18 16 19 16 19 -3 0 -11 -16 -52 -35 -91 -51 -101 -141 -177 -189
-159 -16 6 -34 63 -45 137 l-6 45 -55 5 c-48 4 -55 8 -58 28 -3 21 0 22 60 22
35 0 69 5 75 11 6 6 30 11 54 13 24 1 58 10 74 19 44 24 65 22 65 -7z m797
-637 c-3 -55 -7 -103 -11 -106 -3 -4 -6 -23 -6 -43 0 -34 2 -36 46 -48 41 -11
48 -11 58 4 10 13 17 14 34 5 12 -6 23 -9 23 -6 1 3 2 10 3 17 0 6 7 13 14 16
19 6 15 -72 -7 -161 -25 -97 -39 -122 -102 -191 -65 -71 -45 -73 26 -3 68 68
98 129 135 270 29 113 34 143 46 270 7 65 8 67 34 67 21 0 29 -6 34 -25 8 -31
-9 -213 -28 -315 -18 -91 -62 -224 -76 -228 -5 -2 -10 -8 -10 -14 0 -6 -13
-27 -28 -47 -16 -20 -31 -44 -35 -53 -6 -18 -164 -128 -183 -128 -6 0 -24 -6
-40 -14 -74 -36 -254 -116 -261 -116 -5 0 -24 -11 -43 -24 -19 -12 -53 -29
-75 -37 -22 -7 -62 -26 -90 -40 -27 -15 -70 -35 -95 -45 -25 -10 -62 -29 -83
-42 -46 -31 -111 -44 -133 -28 -14 11 -12 15 18 37 53 41 149 101 198 125 62
31 127 73 113 74 -14 0 -141 -58 -163 -75 -8 -6 -31 -18 -50 -25 -19 -7 -47
-22 -62 -32 -31 -22 -38 -22 -38 -4 0 19 -21 25 -45 13 -13 -7 -20 -6 -23 2
-8 25 -32 9 -42 -28 -6 -22 -17 -51 -24 -66 -14 -27 -14 -27 -18 -4 -3 21 -7
23 -58 20 -30 -1 -60 -7 -67 -13 -20 -16 -33 1 -33 41 0 41 -12 55 -89 106
-86 58 -216 226 -241 314 -8 29 -7 31 19 31 22 0 40 -16 102 -92 112 -140 229
-252 277 -264 16 -5 43 7 101 45 93 62 176 145 254 258 54 76 63 84 145 126
48 24 121 59 162 78 108 48 223 123 263 172 41 50 62 107 78 207 12 79 31 109
56 89 10 -9 13 -7 13 10 0 11 2 21 5 21 3 0 4 -45 2 -101z m-2007 71 c0 -11 4
-20 9 -20 12 0 8 -24 -7 -43 -7 -8 -10 -26 -7 -39 4 -17 0 -29 -14 -42 l-21
-19 0 76 c0 41 3 82 6 91 9 23 34 20 34 -4z m-312 2 c10 -7 10 -19 0 -63 -11
-49 -13 -51 -16 -21 -2 21 -9 32 -19 32 -10 0 -14 -6 -10 -20 3 -11 1 -23 -4
-26 -5 -3 -9 15 -9 40 0 32 5 48 18 55 21 13 24 13 40 3z m2895 -79 c48 -30
130 -94 135 -105 2 -5 8 -8 14 -8 17 0 220 -209 213 -220 -3 -6 1 -10 9 -10 9
0 16 -5 16 -11 0 -6 11 -20 25 -31 14 -11 25 -25 25 -32 0 -6 9 -19 20 -29 11
-9 20 -24 20 -32 0 -8 4 -15 9 -15 15 0 81 -146 81 -179 0 -38 -13 -39 -73 -8
-27 15 -79 29 -138 37 -119 16 -246 70 -433 185 -55 34 -88 48 -111 47 -58 -2
-57 15 12 153 24 50 46 108 49 130 3 22 8 47 11 55 3 8 5 25 4 37 -4 34 17 63
45 63 13 0 43 -12 67 -27z m-3113 -12 c0 -5 -7 -11 -15 -15 -15 -5 -20 5 -8
17 9 10 23 9 23 -2z m569 -53 c1 -5 -3 -8 -9 -8 -5 0 -10 12 -9 28 0 24 1 25
9 7 5 -11 9 -23 9 -27z m-364 12 c-3 -5 -11 -10 -16 -10 -6 0 -7 5 -4 10 3 6
11 10 16 10 6 0 7 -4 4 -10z m1340 -140 c3 -5 -1 -10 -10 -10 -9 0 -13 5 -10
10 3 6 8 10 10 10 2 0 7 -4 10 -10z m-95 -7 c0 -5 14 -16 30 -25 17 -9 30 -13
30 -8 0 16 27 11 34 -6 3 -9 6 -29 6 -45 0 -16 5 -29 11 -29 15 0 36 -57 44
-122 7 -53 5 -58 -26 -100 -18 -24 -52 -58 -75 -76 l-43 -32 -40 47 c-49 55
-71 97 -71 133 0 30 38 160 51 175 5 5 9 26 9 46 0 33 8 46 33 48 4 1 7 -2 7
-6z m-1380 -140 c23 -53 22 -78 -2 -42 -16 25 -34 89 -24 89 3 0 14 -21 26
-47z m1614 -166 c9 -33 6 -42 -21 -80 -28 -39 -106 -107 -121 -107 -4 0 -18 9
-31 19 l-23 18 61 68 c34 38 69 81 77 97 21 40 46 33 58 -15z m1284 -118 c51
-34 92 -65 92 -69 0 -5 17 -14 38 -20 20 -7 56 -23 78 -36 23 -13 68 -33 100
-44 64 -23 173 -70 189 -83 6 -4 56 -40 112 -81 92 -66 121 -89 188 -144 11
-9 40 -32 65 -51 49 -38 123 -106 209 -192 36 -36 68 -59 89 -64 51 -11 42
-37 -26 -68 -32 -15 -69 -27 -83 -26 -13 1 -43 -2 -66 -6 l-42 -7 -10 40 c-8
28 -22 47 -49 65 -20 14 -57 44 -81 66 -25 23 -48 41 -52 41 -4 0 -10 9 -14
20 -3 11 -32 37 -63 57 -31 21 -59 40 -62 44 -3 3 -14 9 -25 13 -11 3 -30 21
-43 38 -28 41 -107 128 -116 128 -7 0 -65 62 -66 71 0 3 -22 30 -50 59 -27 29
-50 56 -50 60 0 4 -12 13 -27 21 -16 7 -44 26 -64 41 -20 15 -45 28 -56 28
-10 0 -24 5 -30 11 -15 15 -32 3 -26 -19 2 -10 -2 -24 -10 -30 -12 -11 -11
-24 14 -95 15 -45 30 -98 31 -117 3 -30 0 -35 -21 -38 -17 -3 -36 10 -76 51
-30 30 -61 70 -70 88 -33 66 -87 137 -100 133 -28 -11 -22 15 21 86 24 41 44
78 44 82 0 16 18 7 108 -53z m-264 -200 c13 -21 17 -42 13 -66 -6 -33 -5 -34
12 -19 23 21 51 20 52 -1 3 -48 -5 -80 -23 -100 -28 -31 -48 -19 -48 29 0 23
-4 37 -10 33 -5 -3 -10 -15 -10 -26 0 -27 -70 -129 -109 -157 -44 -32 -111
-42 -221 -32 -52 5 -106 12 -120 15 -94 23 -110 29 -110 41 0 8 19 26 43 41
23 16 44 31 45 36 2 4 10 7 19 7 8 0 27 9 42 19 15 11 39 23 54 26 15 4 27 11
27 16 0 5 9 9 21 9 29 0 111 43 188 98 101 73 109 75 135 31z m-1661 -40 c3
-9 20 -20 38 -24 19 -4 46 -16 61 -26 14 -11 32 -19 40 -19 16 -1 48 -24 48
-36 0 -5 9 -15 20 -22 11 -7 20 -18 20 -24 0 -9 -3 -9 -11 -1 -14 14 -39 6
-39 -12 0 -33 -36 -20 -142 51 -62 41 -124 84 -137 96 -22 21 -22 22 -5 29 35
13 102 5 107 -12z m642 -109 c-3 -5 -10 -10 -16 -10 -5 0 -9 5 -9 10 0 6 7 10
16 10 8 0 12 -4 9 -10z m953 -182 c7 -7 12 -8 12 -4 0 5 7 3 15 -4 19 -16 19
-60 1 -85 -13 -18 -15 -18 -60 -1 -25 10 -46 22 -46 27 0 11 52 79 61 79 3 0
10 -5 17 -12z m-548 -123 c19 -2 73 -9 119 -15 94 -12 101 -15 101 -35 0 -17
41 -61 55 -60 6 0 26 9 46 18 19 10 46 16 60 13 32 -5 29 -28 -21 -137 -25
-53 -40 -101 -40 -125 0 -41 -8 -56 -79 -150 -58 -76 -134 -149 -243 -233 -75
-58 -158 -145 -158 -166 0 -3 -23 -51 -50 -106 -28 -56 -60 -128 -71 -162 -22
-67 -36 -95 -112 -227 -57 -99 -83 -132 -207 -260 l-91 -95 -26 30 c-14 17
-34 40 -44 53 -25 29 -25 40 0 18 12 -11 21 -13 25 -7 10 16 -35 53 -50 40 -9
-8 -16 -4 -25 13 -7 13 -15 25 -18 28 -15 13 -82 119 -96 154 -28 67 -9 116
45 116 11 0 20 9 23 23 l4 22 8 -22 c8 -26 25 -31 25 -7 0 12 6 15 23 9 12 -4
31 -8 42 -8 11 -1 25 -5 31 -9 6 -4 26 -1 43 8 25 13 41 14 71 6 34 -8 42 -7
61 12 13 11 28 21 34 21 24 1 93 46 98 65 3 14 13 20 31 20 14 0 26 5 26 11 0
17 32 38 60 40 15 1 19 3 9 6 -10 2 -19 13 -22 24 -4 15 -11 19 -24 15 -11 -3
-39 4 -64 16 -40 20 -61 22 -224 24 -179 3 -312 11 -328 21 -4 3 -2 12 5 21
11 14 10 15 -7 8 -17 -6 -17 -4 4 18 13 14 32 28 43 32 10 3 18 14 18 24 0 10
8 21 18 24 10 4 29 16 42 28 18 17 22 18 17 5 -4 -11 -2 -17 7 -17 28 0 25 29
-6 57 -68 62 -96 92 -91 97 3 3 -5 23 -19 43 -35 54 -42 81 -28 109 10 17 10
27 2 36 -7 9 -7 19 -2 28 7 11 -2 26 -38 60 -26 24 -51 44 -56 45 -12 0 -23
42 -21 79 1 24 10 33 46 52 49 24 124 44 169 44 16 0 41 6 56 12 20 9 28 10
31 1 2 -6 12 -9 21 -7 11 3 21 -5 30 -23 13 -29 55 -133 66 -167 5 -15 9 -16
21 -6 8 7 15 16 15 21 0 4 9 33 21 64 26 69 66 120 84 105 6 -5 14 -7 17 -4 7
7 129 -26 238 -64 47 -16 146 -47 220 -67 74 -21 140 -42 147 -47 6 -5 33 -8
60 -6 l48 3 -30 27 c-29 26 -98 71 -195 126 -52 29 -91 58 -173 124 -32 27
-64 48 -71 48 -16 0 -28 23 -32 59 l-3 24 122 -7 c67 -3 138 -8 157 -11z
m-3064 -188 c27 -23 66 -54 86 -67 59 -39 44 -86 -23 -74 -86 17 -289 140
-273 166 3 5 11 5 18 -1 6 -6 21 -10 31 -10 11 1 30 -2 42 -6 15 -5 27 -1 39
14 10 12 21 21 25 21 4 0 29 -19 55 -43z m5164 -47 c0 -5 -4 -10 -9 -10 -6 0
-13 5 -16 10 -3 6 1 10 9 10 9 0 16 -4 16 -10z m60 -53 c21 -43 26 -82 11 -91
-5 -3 -12 -18 -16 -33 -10 -43 -161 -330 -185 -353 -10 -9 -56 -75 -64 -90 -4
-8 2 -5 13 8 11 13 25 21 31 17 15 -10 163 110 261 212 85 88 158 207 159 257
1 49 49 -91 50 -143 0 -48 -16 -117 -30 -131 -3 -3 -17 -23 -32 -45 -27 -41
-103 -125 -113 -125 -3 0 -16 -9 -28 -21 -12 -12 -39 -32 -59 -45 -21 -13 -38
-28 -38 -32 0 -5 -16 -16 -36 -25 -19 -10 -40 -21 -47 -27 -40 -32 -193 -150
-227 -174 -22 -17 -40 -35 -40 -42 0 -10 -21 -28 -71 -59 -9 -5 -56 -38 -104
-73 -48 -35 -99 -69 -114 -75 -14 -6 -45 -24 -68 -39 -23 -15 -45 -28 -49 -28
-10 0 -99 -57 -160 -102 -28 -21 -56 -38 -61 -38 -11 0 -63 -56 -94 -101 l-16
-23 -54 23 c-136 59 -227 152 -232 238 -2 36 -1 38 33 38 19 0 38 -3 41 -7 3
-4 17 -9 31 -10 16 -1 29 -10 31 -20 5 -16 17 -17 69 -9 4 0 14 14 23 30 8 16
24 32 35 36 11 3 20 12 20 19 0 6 5 17 12 24 7 7 13 22 13 34 0 34 30 46 65
26 35 -20 53 -16 74 16 10 16 11 27 5 33 -23 23 -4 58 54 96 31 20 57 44 57
52 0 8 4 15 10 15 5 0 41 22 79 49 48 35 75 48 90 44 16 -4 21 -1 21 16 0 12
6 21 15 21 23 0 84 53 130 114 11 14 28 28 37 32 9 3 31 28 47 57 16 29 48 71
70 94 23 23 41 47 41 53 0 13 41 113 50 120 3 3 18 20 34 39 23 29 27 41 22
73 -7 45 7 56 85 65 30 3 52 12 55 19 2 8 6 21 9 29 7 24 34 6 55 -38z m-5201
-64 c14 -11 26 -29 26 -39 0 -15 -6 -18 -32 -16 -65 7 -33 -19 59 -48 70 -21
119 -111 83 -150 -10 -11 -21 -17 -25 -15 -4 3 -10 -6 -12 -20 -4 -18 -1 -25
11 -26 9 -1 27 -2 41 -4 55 -4 89 -17 104 -41 9 -13 12 -24 6 -24 -5 0 -10 -5
-10 -11 0 -6 6 -9 13 -6 12 4 47 -39 47 -59 0 -6 -11 -16 -25 -22 -15 -7 -28
-24 -33 -44 -8 -31 -9 -32 -65 -32 -52 -1 -58 1 -65 24 l-9 25 -12 -23 c-6
-12 -18 -22 -25 -22 -31 0 -57 66 -31 77 25 9 16 24 -10 17 -20 -5 -24 -3 -19
10 4 11 0 16 -13 16 -11 0 -22 3 -26 6 -6 6 8 37 31 65 11 14 9 20 -12 37 -15
11 -26 25 -26 31 0 6 -3 11 -8 11 -4 0 -15 12 -24 28 -10 15 -18 21 -18 15 0
-19 -34 -16 -53 5 -14 15 -21 37 -44 130 -3 12 1 29 8 38 11 14 10 19 -10 35
-23 19 -23 20 -6 39 30 34 134 30 184 -7z m3135 -448 c3 -8 1 -15 -3 -15 -5 0
-11 7 -15 15 -3 8 -1 15 3 15 5 0 11 -7 15 -15z m239 -120 c-3 -9 -8 -14 -10
-11 -3 3 -2 9 2 15 9 16 15 13 8 -4z m-46 -67 c-3 -8 -6 -5 -6 6 -1 11 2 17 5
13 3 -3 4 -12 1 -19z m-51 -84 c-17 -32 -13 -43 9 -24 10 8 15 9 15 1 0 -6 7
-11 15 -11 9 0 20 -12 25 -26 14 -35 13 -147 -2 -181 -6 -15 -10 -32 -9 -37 1
-5 -8 -19 -20 -32 -34 -37 -53 -207 -29 -269 8 -20 5 -48 -11 -113 -11 -48
-25 -91 -30 -97 -5 -5 -9 -18 -9 -30 0 -11 -10 -45 -21 -75 -15 -39 -24 -93
-29 -185 -5 -71 -14 -146 -20 -165 -7 -22 -10 -112 -8 -248 2 -178 0 -215 -12
-222 -12 -8 -11 -10 6 -10 29 0 57 -34 50 -58 -5 -14 -25 -24 -77 -37 -83 -20
-119 -15 -119 18 0 12 -9 42 -20 66 -28 61 -50 196 -50 305 0 114 25 391 50
556 11 69 22 150 26 180 3 30 17 102 30 160 14 58 29 130 35 160 22 112 48
201 69 238 20 34 142 171 148 167 1 -1 -4 -15 -12 -31z m-2762 -51 c10 -24 -3
-32 -34 -22 -27 10 -27 12 -13 29 17 20 38 17 47 -7z m98 -82 c5 -14 17 -34
26 -45 16 -18 15 -18 -28 -12 -79 12 -101 25 -96 55 2 14 5 27 5 28 1 2 19 2
42 1 34 -1 42 -6 51 -27z m-82 -60 c0 -18 -58 -61 -83 -61 -18 0 -14 20 13 56
26 36 70 39 70 5z m393 -167 c-1 -21 1 -31 4 -21 2 9 9 17 14 17 5 0 9 8 9 17
0 14 3 13 17 -6 13 -19 14 -28 4 -43 -16 -26 -6 -38 33 -38 17 0 37 -5 43 -11
16 -16 83 -29 80 -15 -2 13 1 13 68 2 69 -10 80 -29 88 -144 6 -80 5 -94 -9
-99 -9 -3 -29 -35 -45 -69 -17 -40 -34 -64 -44 -64 -9 0 -22 -15 -30 -33 -8
-19 -21 -39 -29 -46 -24 -20 -65 -5 -84 32 -19 35 -66 85 -132 137 -24 19 -54
45 -67 58 -28 26 -35 28 -26 6 5 -14 3 -14 -15 1 -20 18 -20 18 -1 45 12 15
22 47 24 78 2 28 9 61 16 74 7 13 12 35 10 49 -1 14 5 31 13 38 10 8 14 22 10
36 -4 16 0 26 13 34 28 16 38 7 36 -35z m2500 14 c-4 -19 -12 -28 -24 -28 -11
0 -19 3 -19 7 0 7 43 52 47 49 1 0 -1 -13 -4 -28z m37 -13 c0 -8 -2 -15 -4
-15 -2 0 -6 7 -10 15 -3 8 -1 15 4 15 6 0 10 -7 10 -15z m157 -10 c24 -1 44
-3 46 -6 2 -2 18 -34 36 -71 39 -81 71 -108 182 -152 97 -37 115 -58 80 -87
-13 -11 -43 -24 -68 -30 -24 -6 -46 -15 -49 -20 -3 -5 -14 -9 -25 -9 -10 0
-19 -4 -19 -10 0 -5 -9 -10 -19 -10 -11 0 -23 -4 -26 -10 -3 -5 -17 -10 -30
-10 -19 0 -23 -4 -18 -17 5 -13 2 -15 -15 -11 -12 4 -22 2 -22 -3 0 -5 13 -9
29 -9 17 0 33 -5 36 -11 8 -12 -22 -49 -41 -49 -12 0 -37 52 -38 81 -1 9 -38
52 -83 95 -46 42 -83 84 -83 92 0 7 -16 38 -35 67 l-36 53 21 35 c11 19 19 40
18 47 -2 6 4 15 12 19 8 4 29 15 45 23 17 9 37 13 45 10 8 -3 34 -6 57 -7z
m-2941 -73 c-3 -19 -1 -30 5 -27 5 4 9 1 9 -4 0 -17 -18 -13 -28 5 -5 9 -20
17 -33 18 -28 1 -36 27 -15 49 13 12 21 13 42 4 22 -10 25 -17 20 -45z m2992
-450 c-5 -26 -34 -38 -53 -22 -15 13 -15 15 6 31 26 19 52 14 47 -9z m-2171
-1063 c-5 -18 -2 -20 33 -18 22 2 42 0 46 -3 6 -7 -54 -169 -97 -263 -10 -22
-30 -67 -44 -99 -18 -43 -29 -56 -36 -49 -8 8 -7 18 5 34 9 13 16 30 16 39 -1
8 -7 3 -16 -13 -16 -29 -34 -28 -34 3 0 10 -5 22 -10 25 -8 5 -7 11 1 21 9 11
8 14 -2 15 -8 0 -9 3 -4 5 6 2 9 22 7 45 -3 28 0 44 11 52 9 7 21 35 28 62 6
28 15 59 20 70 4 11 11 35 14 53 6 27 11 33 26 29 10 -3 22 -1 25 4 10 16 16
9 11 -12z m-1680 -327 c16 -21 16 -50 2 -92 -10 -27 -9 -38 6 -64 10 -17 22
-34 27 -37 14 -9 -2 -38 -24 -45 -11 -3 -25 -1 -31 5 -13 13 -49 14 -63 2 -5
-5 -36 -12 -69 -14 -33 -3 -73 -8 -90 -11 -16 -3 -68 -10 -115 -14 -75 -8 -88
-7 -112 10 -75 52 -90 128 -40 198 59 84 106 82 297 -15 133 -67 181 -87 162
-69 -3 4 -2 14 3 23 6 13 2 20 -21 30 -39 17 -40 55 -1 75 15 8 21 15 15 16
-7 0 -13 7 -13 16 0 21 48 11 67 -14z m4093 -126 c0 -8 -4 -17 -9 -20 -15 -10
-40 5 -34 20 7 18 43 18 43 0z m450 7 c0 -9 -52 -35 -58 -29 -2 3 9 11 25 20
33 18 33 18 33 9z m-845 -13 c3 -5 1 -10 -4 -10 -6 0 -11 5 -11 10 0 6 2 10 4
10 3 0 8 -4 11 -10z m323 -11 c-2 -6 -8 -10 -13 -10 -5 0 -11 4 -13 10 -2 6 4
11 13 11 9 0 15 -5 13 -11z m-3682 -24 c16 -8 31 -11 34 -7 12 17 76 10 122
-13 45 -22 48 -23 48 -6 0 21 26 35 36 20 3 -6 18 -8 32 -4 43 11 150 11 149
0 -1 -5 10 -10 26 -10 15 1 27 -1 27 -3 0 -10 -27 -27 -40 -26 -8 0 -30 2 -47
2 -23 2 -33 7 -33 18 0 13 -3 12 -17 -5 -12 -14 -36 -22 -73 -27 -92 -12 -114
-11 -137 3 -18 11 -24 10 -37 -2 -16 -16 -75 -23 -94 -11 -5 3 -12 0 -15 -6
-3 -10 -9 -10 -28 -1 -13 6 -32 14 -41 17 -12 3 -18 15 -18 33 0 22 2 25 10
13 5 -8 10 -10 10 -4 0 10 34 31 51 33 4 1 19 -6 35 -14z m-134 -7 c7 -19 -2
-38 -18 -38 -8 0 -14 8 -14 18 0 30 23 44 32 20z m805 -62 c-4 -11 -13 -11
-41 -2 -20 6 -36 13 -36 16 0 3 17 13 38 22 36 15 37 15 40 -4 2 -11 1 -25 -1
-32z m1566 41 c56 -2 87 0 87 7 0 15 28 -16 30 -34 6 -39 -1 -151 -8 -146 -4
3 -25 1 -46 -4 -29 -6 -36 -5 -33 5 6 15 -11 35 -31 35 -7 0 -20 6 -27 14 -17
17 -83 11 -107 -10 -9 -9 -21 -13 -27 -10 -5 4 -12 2 -16 -4 -11 -18 -25 -11
-26 13 -1 16 -2 18 -6 5 -2 -10 -11 -18 -19 -18 -10 0 -13 6 -10 18 3 9 10 39
16 67 6 27 15 54 20 60 4 5 32 9 62 8 29 -1 92 -4 141 -6z m1137 -37 c0 -11 5
-20 10 -20 6 0 10 -13 10 -30 0 -31 -17 -39 -38 -18 -13 13 -16 47 -6 72 9 23
24 20 24 -4z m995 -40 c12 -10 19 -10 27 -2 16 16 45 15 51 0 4 -10 8 -10 15
1 7 10 18 11 38 6 38 -10 113 -6 138 7 14 8 22 7 30 -3 8 -10 28 -13 67 -11
48 3 60 0 77 -18 12 -13 27 -20 35 -17 8 3 19 1 24 -4 7 -7 17 2 31 25 19 32
24 35 59 30 75 -10 83 -13 77 -32 -4 -12 0 -10 12 6 13 17 26 22 66 22 34 0
50 -4 54 -15 5 -13 10 -12 33 4 17 12 32 16 41 11 7 -4 19 -6 26 -3 7 2 26 -3
42 -11 18 -9 32 -12 34 -6 2 6 21 11 43 13 22 1 45 5 50 9 20 13 35 -9 39 -54
2 -25 7 -51 11 -58 4 -6 3 -16 -1 -20 -13 -13 -273 -21 -294 -10 -12 7 -20 6
-22 0 -6 -18 -97 -14 -117 4 -15 14 -19 14 -24 3 -8 -21 -45 -27 -62 -10 -9 8
-23 12 -34 8 -13 -4 -24 1 -35 16 -16 24 -18 24 -88 -12 -29 -15 -115 -11
-132 6 -19 19 -22 19 -57 -6 -16 -11 -39 -19 -52 -17 -17 2 -22 9 -22 35 0 25
-3 29 -13 20 -8 -6 -18 -22 -23 -35 -8 -20 -14 -23 -56 -20 -38 2 -50 8 -59
27 l-12 24 -4 -24 c-2 -19 -9 -24 -33 -24 -23 0 -31 5 -33 21 -4 27 -38 22
-45 -7 -7 -27 -26 -23 -38 8 l-10 26 -15 -21 c-8 -13 -26 -22 -40 -22 -13 0
-24 -5 -24 -12 0 -7 -16 3 -35 22 -19 19 -35 40 -35 47 0 16 -16 17 -25 2 -5
-6 -12 -4 -21 8 -21 27 -17 33 21 33 19 0 35 4 35 9 0 5 17 13 38 18 38 10 92
-1 92 -18 0 -5 5 -9 10 -9 6 0 10 7 10 15 0 32 101 43 135 15z m-590 -2 c22
-6 47 -10 55 -9 20 4 12 -3 -34 -28 -30 -17 -47 -21 -82 -15 -37 5 -44 10 -44
29 0 36 36 44 105 23z m193 -17 c10 -6 10 -10 -3 -21 -8 -7 -15 -9 -15 -6 0 4
-9 2 -19 -4 -22 -11 -54 -3 -48 13 2 7 14 14 28 18 34 10 42 10 57 0z m-4722
-25 c3 -8 16 -17 30 -20 13 -4 24 -13 24 -21 0 -20 19 -19 26 0 4 10 13 13 26
9 10 -3 25 0 33 6 8 6 26 10 42 8 21 -2 29 -9 31 -28 4 -24 4 -23 17 8 8 18
21 32 29 32 32 0 65 -20 69 -42 4 -21 4 -21 6 3 1 20 7 28 25 31 28 6 36 1 53
-28 20 -37 -3 -55 -72 -55 -33 -1 -73 -1 -90 -2 -83 -2 -98 0 -107 16 -14 27
-28 20 -28 -14 0 -38 -16 -69 -36 -69 -22 0 -46 27 -43 47 4 24 -10 63 -22 63
-5 0 -9 -9 -9 -20 0 -11 -7 -20 -15 -20 -8 0 -15 9 -15 20 0 27 -38 27 -42 0
-5 -31 -20 -29 -31 3 -12 36 -2 74 21 80 37 10 73 6 78 -7z m4154 -46 c0 -10
5 -22 10 -25 13 -8 13 -65 1 -65 -11 0 -17 17 -26 79 -5 31 -4 42 4 37 6 -4
11 -16 11 -26z m335 -30 c-3 -5 -10 -10 -16 -10 -5 0 -9 5 -9 10 0 6 7 10 16
10 8 0 12 -4 9 -10z m-15 -36 c0 -8 -4 -12 -10 -9 -5 3 -10 10 -10 16 0 5 5 9
10 9 6 0 10 -7 10 -16z m57 -86 c-3 -8 -6 -5 -6 6 -1 11 2 17 5 13 3 -3 4 -12
1 -19z"/>
<path d="M3870 4530 c-9 -6 -10 -10 -3 -10 6 0 15 5 18 10 8 12 4 12 -15 0z"/>
<path d="M3805 4500 c-7 -12 2 -12 30 0 19 8 19 9 -2 9 -12 1 -25 -3 -28 -9z"/>
<path d="M3061 2461 c-8 -5 -9 -11 -3 -15 5 -3 15 1 22 9 14 16 3 20 -19 6z"/>
<path d="M3255 2440 c-3 -5 -1 -10 4 -10 6 0 11 5 11 10 0 6 -2 10 -4 10 -3 0
-8 -4 -11 -10z"/>
<path d="M3194 2413 c-10 -16 -13 -16 -29 -3 -16 14 -17 13 -11 -8 5 -13 3
-29 -4 -37 -7 -9 -8 -15 0 -20 5 -3 10 -2 10 3 0 4 15 14 34 22 37 14 53 45
29 54 -8 3 -15 6 -16 6 -1 0 -7 -8 -13 -17z"/>
<path d="M5725 3150 c-3 -5 -1 -10 4 -10 6 0 11 5 11 10 0 6 -2 10 -4 10 -3 0
-8 -4 -11 -10z"/>
<path d="M161 614 c-27 -23 -31 -32 -31 -79 0 -48 3 -56 32 -80 30 -25 37 -27
88 -21 30 4 78 10 105 13 28 3 55 9 60 13 6 5 36 11 68 15 32 4 55 10 52 14
-4 3 -10 6 -13 6 -12 1 -55 27 -74 44 -10 10 -55 36 -101 59 -100 50 -142 54
-186 16z m96 -2 c23 -15 36 -123 19 -151 -9 -14 -87 -3 -108 16 -30 27 6 100
43 88 9 -3 20 -1 24 5 3 5 0 10 -7 10 -22 0 -41 17 -34 29 8 13 45 14 63 3z"/>
<path d="M200 510 c0 -5 7 -10 15 -10 8 0 15 5 15 10 0 6 -7 10 -15 10 -8 0
-15 -4 -15 -10z"/>
<path d="M6060 370 c0 -5 9 -10 20 -10 11 0 20 5 20 10 0 6 -9 10 -20 10 -11
0 -20 -4 -20 -10z"/>
<path d="M6297 341 c-4 -19 -3 -39 2 -44 12 -12 18 13 11 48 l-6 30 -7 -34z"/>
<path d="M6065 310 c3 -5 13 -10 21 -10 8 0 14 5 14 10 0 6 -9 10 -21 10 -11
0 -17 -4 -14 -10z"/>
<path d="M6423 10104 c-17 -13 -16 -14 9 -11 33 4 44 13 24 20 -8 3 -22 -1
-33 -9z"/>
<path d="M6500 10118 c0 -3 8 -15 19 -26 21 -26 51 -29 51 -6 0 9 -7 14 -18
12 -11 -2 -26 3 -35 11 -10 7 -17 11 -17 9z"/>
<path d="M215 10090 c-17 -19 -17 -20 0 -20 9 0 30 -11 47 -25 23 -19 34 -23
48 -15 10 6 35 10 54 10 20 0 36 3 36 8 -1 23 -24 35 -81 41 -35 4 -69 10 -75
14 -6 3 -19 -2 -29 -13z"/>
<path d="M1237 10103 c-14 -13 -6 -23 17 -23 31 0 56 10 56 21 0 10 -63 12
-73 2z"/>
<path d="M6206 10089 c-21 -12 -35 -24 -30 -29 14 -14 127 -15 132 -2 2 7 10
12 18 12 28 0 13 19 -23 29 -49 14 -51 14 -97 -10z"/>
<path d="M1826 10035 c-4 -11 2 -15 22 -15 20 -1 34 -11 53 -39 28 -40 55 -50
144 -52 22 0 54 -9 70 -20 49 -31 55 -32 73 -16 9 8 28 18 42 21 28 7 76 -15
72 -32 -1 -7 2 -12 7 -12 12 0 27 20 35 48 6 18 3 22 -13 22 -11 0 -23 5 -27
11 -3 6 -20 8 -38 5 -22 -4 -40 0 -61 14 -16 11 -37 20 -46 20 -9 0 -28 9 -42
20 -14 11 -37 20 -51 20 -14 0 -26 5 -26 10 0 15 -21 12 -41 -6 -14 -13 -29
-15 -63 -10 -25 4 -48 11 -51 17 -10 15 -52 10 -59 -6z"/>
<path d="M1690 10020 c0 -5 5 -10 10 -10 6 0 10 5 10 10 0 6 -4 10 -10 10 -5
0 -10 -4 -10 -10z"/>
<path d="M3805 9982 c-46 -5 -51 -19 -9 -26 22 -5 41 -3 47 3 16 16 -3 27 -38
23z"/>
<path d="M480 9945 c0 -8 9 -15 20 -15 13 0 18 -5 14 -15 -9 -23 48 -19 69 5
16 20 16 20 -28 20 -24 0 -47 5 -50 10 -9 15 -25 12 -25 -5z"/>
<path d="M3477 9903 c-3 -18 0 -31 11 -39 10 -7 12 -16 6 -25 -5 -8 -9 -23 -9
-34 0 -18 -7 -20 -65 -21 -73 -1 -93 -5 -167 -41 -55 -26 -66 -46 -35 -61 21
-11 102 -3 102 9 0 5 7 9 16 9 10 0 14 -6 10 -15 -9 -24 18 -17 29 8 6 12 17
21 25 19 12 -3 13 -1 3 9 -21 21 -15 39 12 39 18 0 23 -4 19 -15 -11 -28 31
-16 55 16 13 17 25 29 27 27 10 -11 -23 -68 -48 -83 -37 -22 -29 -31 9 -12 19
10 34 12 45 6 11 -6 19 -6 23 1 4 6 10 8 15 5 5 -3 15 4 23 16 11 15 21 19 36
14 12 -4 21 -2 21 4 0 6 6 11 13 11 7 0 18 10 26 21 9 15 15 18 20 10 11 -17
24 3 39 55 16 56 16 56 -17 23 -17 -17 -40 -29 -55 -29 -15 0 -30 -8 -35 -19
-12 -22 -41 -35 -51 -24 -4 4 -10 27 -13 51 -4 32 -2 42 9 42 8 0 14 9 13 23
0 12 -3 16 -6 10 -7 -18 -62 -16 -69 2 -10 24 -31 17 -37 -12z"/>
<path d="M3088 9853 c-21 -43 -40 -68 -51 -68 -31 0 -22 -20 10 -23 17 -2 37
-9 43 -17 10 -12 15 -12 36 1 13 9 47 19 76 23 39 4 54 11 56 23 3 16 1 16
-26 2 -33 -16 -114 -13 -120 5 -2 6 2 34 8 62 7 27 10 52 8 55 -3 2 -20 -26
-40 -63z"/>
<path d="M2871 9897 c-6 -8 -8 -17 -4 -20 7 -8 33 11 33 24 0 13 -16 11 -29
-4z"/>
<path d="M2367 9853 c-29 -57 -63 -84 -73 -60 -4 12 -11 13 -35 4 -33 -13 -33
-30 -1 -35 23 -3 30 -26 12 -37 -27 -17 1 -47 48 -51 58 -5 70 15 32 50 l-30
26 20 30 c11 17 29 44 41 60 11 17 19 39 17 48 -3 11 -13 -1 -31 -35z"/>
<path d="M3655 9890 c-3 -5 -1 -10 4 -10 6 0 11 5 11 10 0 6 -2 10 -4 10 -3 0
-8 -4 -11 -10z"/>
<path d="M2967 9861 c-4 -16 -16 -39 -28 -50 -13 -12 -17 -21 -10 -21 21 0 61
48 61 75 0 34 -16 32 -23 -4z"/>
<path d="M3252 9860 c-6 -10 -26 -21 -44 -23 -26 -3 -24 -4 13 -5 47 -2 65 11
50 36 -4 7 -11 5 -19 -8z"/>
<path d="M2230 9860 c0 -5 4 -10 9 -10 6 0 13 5 16 10 3 6 -1 10 -9 10 -9 0
-16 -4 -16 -10z"/>
<path d="M2569 9843 c-22 -46 -23 -49 0 -24 11 13 21 30 21 38 0 20 -5 16 -21
-14z"/>
<path d="M4298 9833 c12 -2 30 -2 40 0 9 3 -1 5 -23 4 -22 0 -30 -2 -17 -4z"/>
<path d="M2625 9820 c3 -5 10 -10 16 -10 5 0 9 5 9 10 0 6 -7 10 -16 10 -8 0
-12 -4 -9 -10z"/>
<path d="M2790 9818 c0 -11 -11 -20 -27 -24 -47 -10 -54 -14 -48 -24 3 -5 15
-10 26 -10 10 0 19 -7 19 -15 0 -18 -12 -19 -27 -4 -14 14 -36 1 -29 -17 7
-17 -25 -124 -36 -124 -4 0 -8 -5 -8 -11 0 -8 5 -8 15 1 8 7 15 18 15 24 0 6
15 28 33 48 26 29 38 36 57 31 20 -5 22 -3 17 16 -4 15 0 24 11 27 32 10 93
37 96 43 2 3 -14 7 -37 8 -30 1 -45 8 -59 25 -14 19 -18 20 -18 6z"/>
<path d="M2467 9807 c-4 -11 -17 -17 -36 -17 -16 0 -32 -4 -35 -9 -7 -10 16
-21 44 -21 20 0 44 33 37 53 -2 6 -6 4 -10 -6z"/>
<path d="M4346 9795 c-4 -11 -22 -15 -71 -15 -37 0 -65 -4 -65 -10 0 -5 -7
-10 -15 -10 -18 0 -19 -4 -2 -30 10 -17 9 -22 -3 -30 -11 -7 -6 -10 20 -11 89
-5 116 -3 131 8 13 11 15 7 17 -27 3 -41 -11 -80 -28 -80 -6 0 -10 8 -10 18
-1 16 -1 16 -14 0 -7 -10 -18 -18 -25 -18 -23 0 -10 -19 17 -22 27 -3 27 -4
-5 -9 -18 -3 -30 -2 -27 2 2 4 0 10 -6 14 -5 3 -11 21 -11 38 -1 24 -3 26 -6
9 -2 -12 -14 -27 -25 -33 -15 -8 -19 -8 -14 0 14 22 -6 33 -23 14 -16 -19 -41
-59 -41 -67 0 -2 32 -4 72 -5 39 0 74 -5 77 -9 8 -11 111 -9 111 2 0 4 6 6 14
3 8 -3 18 5 25 19 14 31 14 37 1 29 -5 -3 -22 1 -37 9 l-28 15 33 -4 c30 -3
43 7 23 19 -5 3 -12 22 -15 42 -10 49 13 83 54 82 16 -1 30 -5 30 -10 0 -4 5
-8 11 -8 8 0 8 5 -1 15 -7 8 -10 21 -7 30 8 20 -11 29 -29 14 -8 -7 -31 -12
-51 -11 -22 1 -44 -5 -55 -15 -13 -12 -22 -13 -29 -6 -8 8 -5 14 10 22 12 7
21 18 21 26 0 19 -16 19 -24 0z"/>
<path d="M3921 9786 c-10 -12 -8 -13 8 -9 12 3 21 9 21 14 0 14 -16 11 -29 -5z"/>
<path d="M2515 9780 c3 -5 12 -7 20 -3 21 7 19 13 -6 13 -11 0 -18 -4 -14 -10z"/>
<path d="M3805 9781 c-33 -3 -55 -9 -49 -13 15 -10 103 2 110 13 3 5 4 8 2 7
-2 -1 -30 -4 -63 -7z"/>
<path d="M4568 9763 c-7 -26 1 -43 18 -36 18 7 19 53 0 53 -7 0 -16 -8 -18
-17z"/>
<path d="M1987 9741 c-5 -19 9 -41 25 -41 4 0 8 14 8 30 0 34 -25 42 -33 11z"/>
<path d="M2501 9731 c-13 -12 -18 -22 -11 -26 5 -3 10 -17 10 -31 0 -23 2 -24
15 -11 8 9 24 13 36 10 12 -4 25 0 30 8 14 22 10 39 -8 39 -9 0 -24 7 -33 15
-15 14 -19 13 -39 -4z"/>
<path d="M2150 9731 c0 -4 6 -16 14 -26 14 -19 15 -19 35 -1 29 26 27 32 -14
33 -19 1 -35 -2 -35 -6z"/>
<path d="M3146 9713 c-3 -4 -6 -18 -5 -32 0 -14 3 -20 6 -13 2 6 11 12 18 12
8 0 16 4 19 8 6 10 -30 33 -38 25z"/>
<path d="M3690 9691 c0 -5 -9 -12 -19 -16 -11 -3 -22 -19 -26 -35 -4 -17 -11
-32 -16 -35 -13 -9 -11 -25 3 -25 17 0 58 50 58 71 0 10 7 25 16 33 14 15 14
16 0 16 -9 0 -16 -4 -16 -9z"/>
<path d="M1825 9670 c-3 -5 3 -10 15 -10 12 0 18 5 15 10 -3 6 -10 10 -15 10
-5 0 -12 -4 -15 -10z"/>
<path d="M4256 9671 c-4 -7 -5 -15 -2 -18 9 -9 19 4 14 18 -4 11 -6 11 -12 0z"/>
<path d="M2250 9655 c0 -8 -5 -15 -11 -15 -12 0 -48 -40 -49 -53 0 -5 8 -6 19
-2 11 3 21 0 24 -8 4 -11 20 -12 84 -4 81 9 103 19 103 44 0 11 -6 8 -20 -8
-11 -14 -19 -18 -20 -11 0 9 -7 11 -20 7 -15 -5 -20 -2 -20 12 0 10 -3 14 -8
8 -4 -6 -19 -16 -34 -22 -33 -15 -52 3 -42 41 3 14 3 26 0 26 -3 0 -6 -7 -6
-15z"/>
<path d="M2820 9648 c0 -19 2 -20 10 -8 13 19 13 30 0 30 -5 0 -10 -10 -10
-22z"/>
<path d="M2965 9640 c-3 -5 -2 -10 4 -10 5 0 13 5 16 10 3 6 2 10 -4 10 -5 0
-13 -4 -16 -10z"/>
<path d="M3326 9625 c-3 -8 -1 -15 4 -15 6 0 10 7 10 15 0 8 -2 15 -4 15 -2 0
-6 -7 -10 -15z"/>
<path d="M4119 9633 c-10 -2 -19 -13 -22 -24 -3 -11 -14 -19 -27 -19 -11 0
-18 -4 -15 -10 9 -15 41 -12 55 5 7 8 16 13 20 10 4 -3 10 6 12 20 3 14 2 24
-1 24 -3 -1 -13 -3 -22 -6z"/>
<path d="M3196 9605 c-3 -8 -1 -15 4 -15 6 0 10 7 10 15 0 8 -2 15 -4 15 -2 0
-6 -7 -10 -15z"/>
<path d="M5148 9613 c7 -3 16 -2 19 1 4 3 -2 6 -13 5 -11 0 -14 -3 -6 -6z"/>
<path d="M2863 9600 c-31 -13 -29 -20 7 -20 20 0 30 5 30 15 0 17 -5 18 -37 5z"/>
<path d="M2920 9595 c-8 -10 -3 -14 20 -17 39 -6 46 4 14 19 -18 8 -26 8 -34
-2z"/>
<path d="M3443 9595 c-18 -20 -16 -25 7 -25 13 0 20 7 20 20 0 23 -10 25 -27
5z"/>
<path d="M3491 9594 c-16 -19 -9 -28 18 -19 12 4 18 12 14 21 -7 18 -14 17
-32 -2z"/>
<path d="M3585 9601 c-3 -7 -13 -10 -20 -9 -8 2 -14 -1 -14 -7 0 -10 47 -10
57 0 3 3 1 10 -5 16 -8 8 -13 8 -18 0z"/>
<path d="M2795 9590 c-3 -5 -2 -10 4 -10 5 0 13 5 16 10 3 6 2 10 -4 10 -5 0
-13 -4 -16 -10z"/>
<path d="M3230 9589 c0 -5 5 -7 10 -4 6 3 10 8 10 11 0 2 -4 4 -10 4 -5 0 -10
-5 -10 -11z"/>
<path d="M3290 9590 l-25 -8 28 -1 c15 -1 27 4 27 9 0 6 -1 10 -2 9 -2 -1 -14
-5 -28 -9z"/>
<path d="M3405 9590 c3 -5 8 -10 11 -10 2 0 4 5 4 10 0 6 -5 10 -11 10 -5 0
-7 -4 -4 -10z"/>
<path d="M3735 9590 c-16 -7 -17 -9 -3 -9 9 -1 20 4 23 9 7 11 7 11 -20 0z"/>
<path d="M3060 9575 c-7 -8 -8 -15 -2 -15 5 0 15 7 22 15 7 8 8 15 2 15 -5 0
-15 -7 -22 -15z"/>
<path d="M1944 9566 c-14 -11 -16 -17 -7 -26 8 -9 14 -7 23 10 15 28 9 34 -16
16z"/>
<path d="M4950 9570 c20 -13 33 -13 25 0 -3 6 -14 10 -23 10 -15 0 -15 -2 -2
-10z"/>
<path d="M4650 9559 c0 -5 5 -7 10 -4 6 3 10 8 10 11 0 2 -4 4 -10 4 -5 0 -10
-5 -10 -11z"/>
<path d="M4071 9537 c17 -16 23 -17 30 -6 13 21 11 24 -21 25 l-31 1 22 -20z"/>
<path d="M4747 9529 c4 -16 8 -17 14 -7 13 19 11 28 -5 28 -9 0 -12 -7 -9 -21z"/>
<path d="M4015 9530 c-4 -6 -12 -8 -18 -4 -7 3 -3 -2 7 -10 29 -23 55 -21 49
4 -6 21 -28 27 -38 10z"/>
<path d="M2925 9510 c-3 -5 -3 -15 1 -21 6 -11 23 6 24 24 0 10 -18 9 -25 -3z"/>
<path d="M3810 9507 c-14 -6 -28 -15 -31 -20 -7 -9 0 -47 8 -47 11 0 49 25 59
38 6 8 16 12 22 8 19 -11 14 5 -5 20 -21 16 -21 16 -53 1z"/>
<path d="M3939 9494 c-11 -14 -10 -16 9 -12 13 1 23 7 23 13 1 17 -17 16 -32
-1z"/>
<path d="M3693 9457 c6 -20 36 -32 53 -22 25 16 17 27 -21 30 -21 1 -34 -2
-32 -8z"/>
<path d="M3450 9419 c0 -5 5 -7 10 -4 6 3 10 8 10 11 0 2 -4 4 -10 4 -5 0 -10
-5 -10 -11z"/>
<path d="M25 31 c-11 -3 -21 -12 -23 -18 -1 -9 15 -13 56 -12 41 0 51 3 37 9
-16 7 -11 9 20 9 31 0 36 -2 20 -9 -15 -6 -9 -9 25 -9 25 1 38 3 30 6 -8 3
-18 11 -22 16 -7 12 -113 18 -143 8z"/>
<path d="M3080 10 c0 -5 14 -10 31 -10 17 0 28 4 24 10 -8 13 -55 13 -55 0z"/>
</g>
</svg>
